<?xml version="1.0" encoding="UTF-8"?>
<svg xmlns="http://www.w3.org/2000/svg" xmlns:xlink="http://www.w3.org/1999/xlink" width="50pt" height="50pt" viewBox="0 0 50 50" version="1.1">
<g id="surface18683323">
<path style=" stroke:none;fill-rule:nonzero;fill:rgb(100%,100%,100%);fill-opacity:1;" d="M 31.0625 5.21875 C 32.777344 5.558594 34.078125 6.429688 34.9375 7.8125 C 36.988281 11.113281 35.800781 16.269531 35.21875 18.25 C 35.65625 18.800781 35.976562 19.628906 35.84375 20.71875 C 35.578125 22.921875 34.722656 23.828125 34 24.1875 C 33.789062 25.257812 33.359375 26.410156 32.847656 27.347656 L 32.5 27.101562 L 28.300781 31.300781 L 27.101562 32.398438 L 28.085938 33.78125 C 27.476562 33.917969 26.78125 34 26 34 C 22.371094 34 20.710938 32.28125 20.1875 31.1875 C 20.210938 30.535156 20.222656 29.910156 20.21875 29.25 L 20.21875 28.78125 C 19.296875 27.863281 18.339844 25.921875 18 24.1875 C 17.296875 23.824219 16.417969 22.914062 16.15625 20.71875 C 16.023438 19.605469 16.363281 18.769531 16.8125 18.21875 C 15.589844 13.144531 15.941406 9.265625 17.875 6.71875 C 19.507812 4.570312 22.195312 3.472656 25.875 3.40625 C 28.304688 3.40625 30.117188 4.027344 31.0625 5.21875 Z M 5.9375 46 L 6 44.9375 C 6.363281 38.871094 11.21875 36.972656 15.125 35.4375 C 16.804688 34.777344 18.328125 34.175781 19.28125 33.375 C 20.515625 34.78125 22.683594 36 26 36 L 26 42.699219 L 27.699219 43 L 28.699219 43.101562 L 28.101562 44.101562 L 27.101562 45.5 L 27.601562 46 Z M 5.9375 46 "/>
<path style=" stroke:none;fill-rule:nonzero;fill:rgb(100%,100%,100%);fill-opacity:1;" d="M 50 41 L 50 36.800781 L 46.800781 36.300781 C 46.699219 36 46.5 35.601562 46.398438 35.300781 L 48.199219 32.601562 L 45.300781 29.699219 L 42.699219 31.601562 C 42.398438 31.398438 42 31.300781 41.699219 31.199219 L 41.101562 28 L 36.898438 28 L 36.398438 31.199219 C 36.101562 31.300781 35.699219 31.5 35.398438 31.601562 L 32.699219 29.699219 L 29.699219 32.699219 L 31.5 35.199219 C 31.300781 35.5 31.199219 35.898438 31.101562 36.300781 L 28 36.800781 L 28 41 L 31.101562 41.5 C 31.199219 41.800781 31.398438 42.199219 31.5 42.5 L 29.699219 45.199219 L 32.699219 48.199219 L 35.398438 46.398438 C 35.800781 46.601562 36.101562 46.699219 36.5 46.800781 L 36.898438 50 L 41.101562 50 L 41.601562 46.800781 C 41.898438 46.699219 42.300781 46.5 42.601562 46.398438 L 45.300781 48.199219 L 48.300781 45.199219 L 46.398438 42.601562 C 46.601562 42.300781 46.699219 41.898438 46.800781 41.601562 Z M 39 42 C 37.300781 42 36 40.699219 36 39 C 36 37.300781 37.300781 36 39 36 C 40.699219 36 42 37.300781 42 39 C 42 40.699219 40.699219 42 39 42 Z M 39 42 "/>
</g>
</svg>
