<?xml version="1.0" encoding="UTF-8"?>
<svg xmlns="http://www.w3.org/2000/svg" xmlns:xlink="http://www.w3.org/1999/xlink" width="150pt" height="150pt" viewBox="0 0 150 150" version="1.1">
<g id="surface6962097">
<path style=" stroke:none;fill-rule:nonzero;fill:rgb(100%,100%,100%);fill-opacity:1;" d="M 75 6 C 36.890625 6 6 36.890625 6 75 C 6 113.109375 36.890625 144 75 144 C 113.109375 144 144 113.109375 144 75 C 144 36.890625 113.109375 6 75 6 Z M 75 33 C 79.972656 33 84 37.027344 84 42 C 84 46.972656 79.972656 51 75 51 C 70.027344 51 66 46.972656 66 42 C 66 37.027344 70.027344 33 75 33 Z M 87 114 L 63 114 L 63 108 L 69 108 L 69 69 L 63 69 L 63 63 L 81 63 L 81 108 L 87 108 Z M 87 114 "/>
</g>
</svg>
