<?xml version="1.0" encoding="UTF-8"?>
<svg xmlns="http://www.w3.org/2000/svg" xmlns:xlink="http://www.w3.org/1999/xlink" width="50pt" height="50pt" viewBox="0 0 50 50" version="1.1">
<g id="surface9411649">
<path style=" stroke:none;fill-rule:nonzero;fill:rgb(100%,100%,100%);fill-opacity:1;" d="M 21.878906 4 C 18.191406 4.082031 15.5 5.210938 13.871094 7.351562 C 11.945312 9.882812 11.585938 13.765625 12.796875 18.898438 C 12.382812 19.425781 12.011719 20.277344 12.109375 21.4375 C 12.40625 23.597656 13.226562 24.488281 13.894531 24.851562 C 14.214844 26.570312 15.117188 28.523438 16 29.457031 L 16 33.011719 C 15.355469 34.46875 13.167969 35.367188 10.855469 36.320312 C 6.910156 37.941406 2 39.964844 2 46 L 2 47 L 32.285156 47 L 31.863281 48.613281 C 31.761719 49.011719 31.960938 49.511719 32.261719 49.710938 C 32.460938 49.8125 32.660156 49.910156 32.863281 49.910156 C 33.0625 49.910156 33.265625 49.8125 33.464844 49.710938 L 39.0625 46.113281 L 44.660156 49.8125 C 44.960938 50.109375 45.460938 50.011719 45.761719 49.8125 C 46.160156 49.511719 46.261719 49.109375 46.160156 48.710938 L 44.460938 42.210938 L 49.660156 38.011719 C 49.960938 37.710938 50.0625 37.308594 49.960938 36.910156 C 49.863281 36.511719 49.460938 36.210938 49.0625 36.210938 L 42.359375 35.8125 L 39.960938 29.511719 C 39.863281 29.210938 39.460938 28.910156 39.0625 28.910156 C 38.664062 28.910156 38.261719 29.210938 38.0625 29.410156 L 35.660156 35.710938 L 31.628906 35.953125 C 29.953125 35.046875 28.882812 34.113281 28.882812 34.113281 C 28.882812 34.113281 28.195312 33.40625 28 32.996094 L 28 29.449219 C 28.84375 28.53125 29.691406 26.621094 30 24.878906 C 30.714844 24.527344 31.59375 23.636719 31.796875 21.382812 C 31.890625 20.257812 31.582031 19.429688 31.152344 18.898438 C 32.003906 16.167969 32.75 11.496094 30.949219 8.523438 C 30.097656 7.113281 28.796875 6.230469 27.082031 5.886719 C 26.117188 4.667969 24.300781 4 21.878906 4 Z M 21.902344 6 C 23.792969 6 25.152344 6.476562 25.636719 7.304688 L 25.882812 7.722656 L 26.363281 7.789062 C 27.691406 7.976562 28.632812 8.554688 29.242188 9.558594 C 30.6875 11.953125 29.925781 16.433594 29.058594 18.863281 L 28.742188 19.691406 L 29.535156 20.085938 C 29.625 20.148438 29.863281 20.496094 29.804688 21.210938 C 29.671875 22.6875 29.199219 23.082031 29.101562 23.101562 L 28.191406 23.101562 L 28.105469 24.007812 C 27.925781 25.902344 26.863281 27.859375 26.503906 28.132812 L 26 28.421875 L 26 33.199219 C 25.980469 33.574219 24.535156 34.699219 22 34.699219 C 19.511719 34.699219 18 33.65625 18 33.199219 L 18 29 L 18.015625 28.429688 L 17.511719 28.140625 C 17.148438 27.878906 15.976562 25.894531 15.796875 24.007812 L 15.785156 23.109375 L 14.871094 23.109375 C 14.730469 23.054688 14.285156 22.578125 14.097656 21.21875 C 14.027344 20.378906 14.453125 20.03125 14.453125 20.03125 L 15.042969 19.640625 L 14.867188 18.953125 C 13.65625 14.167969 13.859375 10.671875 15.464844 8.558594 C 16.703125 6.929688 18.878906 6.066406 21.898438 6 Z M 39.0625 32.710938 L 40.660156 37.210938 C 40.863281 37.511719 41.164062 37.808594 41.5625 37.808594 L 46.363281 38.113281 L 42.664062 41.113281 C 42.363281 41.3125 42.261719 41.710938 42.363281 42.113281 L 43.5625 46.710938 L 39.5625 44.113281 C 39.460938 44.011719 39.261719 43.910156 39.0625 43.910156 C 38.863281 43.910156 38.664062 44.011719 38.464844 44.011719 L 34.464844 46.613281 L 35.664062 42.011719 C 35.761719 41.710938 35.664062 41.210938 35.363281 41.011719 L 31.664062 38.011719 L 36.464844 37.8125 C 36.863281 37.710938 37.164062 37.511719 37.363281 37.113281 Z M 39.0625 32.710938 "/>
</g>
</svg>
