<?xml version="1.0" encoding="UTF-8"?>
<svg xmlns="http://www.w3.org/2000/svg" xmlns:xlink="http://www.w3.org/1999/xlink" width="150pt" height="150pt" viewBox="0 0 150 150" version="1.1">
<g id="surface729562">
<path style=" stroke:none;fill-rule:nonzero;fill:rgb(100%,100%,100%);fill-opacity:1;" d="M 75 0 C 69.058594 0 63.679688 2.835938 56.25 6.75 C 46.675781 11.789062 33.550781 18.65625 11.34375 23.53125 L 9 24.09375 L 9 26.4375 C 9 117.832031 73.136719 148.488281 73.78125 148.78125 L 75.09375 149.4375 L 76.3125 148.78125 C 76.957031 148.453125 141 114.785156 141 26.4375 L 141 24.09375 L 138.65625 23.53125 C 116.449219 18.65625 103.324219 11.789062 93.75 6.75 C 86.320312 2.835938 80.941406 0 75 0 Z M 75 36 C 93.199219 36 108 50.800781 108 69 C 108 87.199219 93.199219 102 75 102 C 56.800781 102 42 87.199219 42 69 C 42 50.800781 56.800781 36 75 36 Z M 75 42 C 60.117188 42 48 54.117188 48 69 C 48 75.363281 50.203125 81.257812 53.90625 85.875 L 91.875 47.90625 C 87.257812 44.203125 81.363281 42 75 42 Z M 96.09375 52.125 L 58.125 90.09375 C 62.742188 93.796875 68.636719 96 75 96 C 89.894531 96 102 83.894531 102 69 C 102 62.636719 99.796875 56.742188 96.09375 52.125 Z M 96.09375 52.125 "/>
</g>
</svg>
