<?xml version="1.0" encoding="UTF-8"?>
<svg xmlns="http://www.w3.org/2000/svg" xmlns:xlink="http://www.w3.org/1999/xlink" width="100pt" height="100pt" viewBox="0 0 100 100" version="1.1">
<g id="surface9583576">
<path style=" stroke:none;fill-rule:nonzero;fill:rgb(100%,100%,100%);fill-opacity:1;" d="M 55.3125 3.8125 C 53.21875 3.929688 50.710938 5.148438 50.1875 9 L 49 20 L 31.375 26 L 17.1875 35.8125 C 14.390625 37.8125 12.8125 42.585938 14.8125 45.1875 L 24.375 58.375 C 25.578125 59.976562 28.789062 60.601562 31.1875 59 C 33.585938 57.398438 33.789062 54.171875 32.1875 52.375 L 24.8125 42.625 L 29 39.625 L 37.625 53 L 38 90 C 38 92.601562 40 96 44 96 C 48 96 50 93 50 90 L 50 61.8125 C 50 56.609375 54.226562 52.8125 58.625 49.8125 L 87.1875 30.625 C 89.390625 28.828125 89.8125 24.601562 87.8125 22 C 85.210938 18.601562 81 20.414062 79 21.8125 L 50.625 40.8125 L 45.1875 32.625 L 54.1875 29.8125 C 56.585938 29.015625 58.171875 27.023438 58.375 24.625 L 60.1875 9 C 60.390625 6.796875 58.390625 4.015625 56.1875 3.8125 C 55.914062 3.789062 55.609375 3.796875 55.3125 3.8125 Z M 24 4 C 18.398438 4 14 8.398438 14 14 C 14 19.601562 18.398438 24 24 24 C 29.601562 24 34 19.601562 34 14 C 34 8.398438 29.601562 4 24 4 Z M 24 4 "/>
</g>
</svg>
