<?xml version="1.0" encoding="UTF-8"?>
<svg xmlns="http://www.w3.org/2000/svg" xmlns:xlink="http://www.w3.org/1999/xlink" width="100pt" height="100pt" viewBox="0 0 100 100" version="1.1">
<g id="surface19537523">
<path style=" stroke:none;fill-rule:nonzero;fill:rgb(100%,100%,100%);fill-opacity:1;" d="M 49.8125 5.9375 C 49.726562 5.953125 49.640625 5.976562 49.5625 6 C 48.632812 6.210938 47.976562 7.046875 48 8 L 48 65.1875 L 35.4375 52.5625 C 34.65625 51.78125 33.34375 51.78125 32.5625 52.5625 C 31.78125 53.34375 31.78125 54.65625 32.5625 55.4375 L 48.3125 71.125 C 48.460938 71.351562 48.648438 71.539062 48.875 71.6875 L 50 72.8125 L 51.4375 71.375 C 51.484375 71.335938 51.523438 71.296875 51.5625 71.25 L 67.4375 55.4375 C 68.21875 54.65625 68.21875 53.34375 67.4375 52.5625 C 66.65625 51.78125 65.34375 51.78125 64.5625 52.5625 L 52 65.1875 L 52 8 C 52.023438 7.421875 51.789062 6.867188 51.375 6.476562 C 50.953125 6.078125 50.382812 5.882812 49.8125 5.9375 Z M 33.5625 62.0625 C 16.828125 64.085938 2.734375 69.234375 2.0625 77.125 C 2.023438 77.289062 2 77.453125 2 77.625 C 2 88.40625 26.726562 94.1875 50 94.1875 C 72.84375 94.1875 97.117188 88.585938 98 78.1875 C 98.039062 78.023438 98.0625 77.859375 98.0625 77.6875 C 98.0625 69.453125 83.617188 64.125 66.4375 62.0625 L 52.8125 75.625 L 50 78.5 L 47.1875 75.625 Z M 33.5625 62.0625 "/>
</g>
</svg>
