<?xml version="1.0" encoding="UTF-8"?>
<svg xmlns="http://www.w3.org/2000/svg" xmlns:xlink="http://www.w3.org/1999/xlink" viewBox="0 0 150 150" width="150px" height="150px">
<g id="surface3473301">
<path style=" stroke:none;fill-rule:nonzero;fill:rgb(100%,100%,100%);fill-opacity:1;" d="M 73.6875 12.046875 C 71.496094 12.199219 69.035156 12.65625 66.890625 13.5 L 61.605469 15.527344 C 60.421875 15.984375 59.660156 16.429688 59.203125 16.757812 L 70.101562 21 C 72.363281 21.878906 77.894531 21.679688 82.21875 19.992188 L 87.445312 17.941406 C 88.59375 17.496094 89.332031 17.050781 89.765625 16.734375 L 78.949219 12.515625 C 77.824219 12.082031 75.878906 11.90625 73.6875 12.046875 Z M 52.042969 20.414062 C 49.816406 20.566406 47.332031 21.035156 45.128906 21.890625 L 39.785156 23.953125 C 38.484375 24.445312 37.722656 24.914062 37.277344 25.242188 L 48.28125 29.53125 C 50.554688 30.410156 56.167969 30.199219 60.5625 28.476562 L 65.871094 26.402344 C 67.125 25.910156 67.863281 25.453125 68.296875 25.125 L 57.375 20.871094 C 56.238281 20.425781 54.28125 20.261719 52.042969 20.414062 Z M 95.847656 20.671875 C 93.667969 20.824219 91.21875 21.292969 89.085938 22.125 L 83.859375 24.1875 C 82.628906 24.667969 81.902344 25.113281 81.480469 25.429688 L 92.402344 29.683594 C 94.664062 30.5625 100.171875 30.363281 104.449219 28.652344 L 109.640625 26.578125 C 110.824219 26.109375 111.527344 25.675781 111.9375 25.359375 L 101.085938 21.128906 C 99.960938 20.695312 98.027344 20.53125 95.847656 20.671875 Z M 30.058594 28.910156 C 27.808594 29.0625 25.277344 29.542969 23.039062 30.410156 L 17.601562 32.507812 C 16.242188 33.035156 15.445312 33.527344 15 33.867188 L 26.097656 38.191406 C 28.40625 39.082031 34.089844 38.859375 38.566406 37.113281 L 43.957031 34.992188 C 45.28125 34.476562 46.042969 33.996094 46.476562 33.65625 L 35.449219 29.367188 C 34.3125 28.921875 32.320312 28.757812 30.058594 28.910156 Z M 74.390625 29.109375 C 72.164062 29.261719 69.691406 29.730469 67.511719 30.585938 L 62.203125 32.671875 C 60.902344 33.175781 60.152344 33.644531 59.71875 33.984375 L 70.757812 38.285156 C 73.042969 39.164062 78.609375 38.941406 82.96875 37.21875 L 88.230469 35.109375 C 89.484375 34.605469 90.222656 34.148438 90.644531 33.832031 L 79.6875 29.554688 C 78.550781 29.121094 76.605469 28.945312 74.390625 29.109375 Z M 118.007812 29.296875 C 115.839844 29.449219 113.414062 29.917969 111.292969 30.761719 L 106.113281 32.824219 C 104.882812 33.316406 104.15625 33.773438 103.746094 34.101562 L 114.714844 38.367188 C 116.976562 39.246094 122.4375 39.023438 126.667969 37.3125 L 131.8125 35.238281 C 133.007812 34.746094 133.710938 34.300781 134.109375 33.984375 L 123.210938 29.742188 C 122.097656 29.308594 120.175781 29.144531 118.007812 29.296875 Z M 55.675781 37.664062 C 52.921875 37.429688 48.914062 37.886719 45.597656 39.1875 L 40.207031 41.296875 C 38.835938 41.835938 38.050781 42.328125 37.628906 42.667969 L 48.761719 47.015625 C 51.058594 47.90625 56.707031 47.671875 61.148438 45.902344 L 66.492188 43.78125 C 67.816406 43.253906 68.578125 42.773438 69 42.421875 L 57.9375 38.109375 C 57.363281 37.898438 56.589844 37.746094 55.675781 37.664062 Z M 96.703125 37.792969 C 94.511719 37.945312 92.050781 38.4375 89.90625 39.292969 L 84.632812 41.390625 C 83.332031 41.917969 82.582031 42.386719 82.171875 42.714844 L 93.234375 47.027344 C 95.507812 47.917969 101.050781 47.695312 105.375 45.9375 L 110.589844 43.828125 C 111.84375 43.3125 112.570312 42.855469 112.980469 42.527344 L 101.988281 38.25 C 100.851562 37.804688 98.90625 37.640625 96.703125 37.792969 Z M 12.820312 38.109375 C 12.585938 38.109375 12.410156 38.179688 12.304688 38.261719 C 12.035156 38.460938 12 38.953125 12 39.234375 L 12 51.5625 C 12 53.414062 13.535156 55.851562 15.304688 56.765625 L 21.984375 60.421875 C 22.816406 60.855469 23.460938 60.855469 23.730469 60.667969 C 23.964844 60.492188 24 60.023438 24 59.753906 L 24 46.640625 C 24 44.671875 22.324219 42.199219 20.402344 41.355469 L 13.710938 38.332031 C 13.359375 38.179688 13.054688 38.121094 12.820312 38.109375 Z M 137.191406 38.34375 C 136.957031 38.34375 136.664062 38.414062 136.324219 38.554688 L 129.515625 41.34375 C 127.6875 42.117188 126 44.542969 126 46.441406 L 126 59.378906 C 126 59.636719 126.035156 60.09375 126.269531 60.269531 C 126.527344 60.457031 127.171875 60.457031 128.003906 60.035156 L 134.800781 56.566406 C 136.5 55.699219 138 53.34375 138 51.539062 L 138 39.433594 C 138 39.175781 137.964844 38.683594 137.707031 38.484375 C 137.601562 38.414062 137.425781 38.34375 137.191406 38.34375 Z M 31.113281 45.410156 C 30.773438 45.410156 30.527344 45.492188 30.363281 45.609375 C 30.128906 45.785156 30 46.136719 30 46.640625 L 30 59.753906 C 30 61.558594 31.664062 64.382812 34.03125 65.578125 L 45.1875 70.921875 C 46.359375 71.507812 47.273438 71.507812 47.671875 71.238281 C 47.882812 71.074219 48 70.746094 48 70.253906 L 48 56.261719 C 48 54.105469 45.925781 51.328125 43.570312 50.332031 L 32.425781 45.714844 C 31.898438 45.492188 31.453125 45.410156 31.113281 45.410156 Z M 118.851562 45.84375 C 118.511719 45.84375 118.089844 45.914062 117.609375 46.113281 L 106.464844 50.941406 C 104.0625 51.914062 102 54.621094 102 56.753906 L 102 70.640625 C 102 71.121094 102.105469 71.449219 102.328125 71.601562 C 102.726562 71.882812 103.664062 71.894531 104.835938 71.308594 L 116.015625 65.683594 C 118.359375 64.535156 120 61.757812 120 60 L 120 47.0625 C 120 46.570312 119.882812 46.230469 119.636719 46.042969 C 119.484375 45.925781 119.203125 45.84375 118.851562 45.84375 Z M 78.164062 46.417969 C 75.421875 46.183594 71.449219 46.652344 68.15625 47.953125 L 62.8125 50.085938 C 61.5 50.613281 60.691406 51.117188 60.246094 51.480469 L 71.425781 55.828125 C 73.722656 56.730469 79.347656 56.484375 83.730469 54.703125 L 89.039062 52.558594 C 90.363281 52.019531 91.113281 51.527344 91.523438 51.1875 L 80.425781 46.875 C 79.851562 46.652344 79.078125 46.5 78.164062 46.417969 Z M 55.417969 54.890625 C 54.960938 54.890625 54.632812 55.007812 54.421875 55.160156 C 54.316406 55.230469 54 55.464844 54 56.261719 L 54 70.253906 C 54 72.210938 55.957031 75.386719 58.769531 76.792969 L 68.34375 81.65625 C 69.890625 82.429688 71.097656 82.40625 71.613281 82.042969 C 71.71875 81.972656 72 81.785156 72 81 L 72 66 C 72 63.890625 69.832031 60.621094 66.714844 59.308594 L 57.140625 55.277344 C 56.460938 54.996094 55.886719 54.878906 55.417969 54.890625 Z M 94.5 55.359375 C 94.042969 55.359375 93.46875 55.476562 92.800781 55.746094 L 83.34375 59.390625 C 80.203125 60.667969 78 63.902344 78 66 L 78 81 C 78 81.761719 78.28125 81.960938 78.386719 82.03125 C 78.925781 82.417969 80.179688 82.429688 81.785156 81.644531 L 91.21875 77.109375 C 94.042969 75.714844 96 72.585938 96 70.640625 L 96 56.753906 C 96 55.96875 95.683594 55.734375 95.578125 55.652344 C 95.355469 55.488281 94.992188 55.359375 94.5 55.359375 Z M 135 60 L 134.683594 60.1875 C 134.671875 60.199219 134.660156 60.199219 134.636719 60.210938 C 134.496094 60.351562 134.367188 60.503906 134.226562 60.609375 L 129.703125 64.3125 C 129.515625 64.488281 129.304688 64.570312 129.105469 64.6875 C 129.046875 65.027344 129 65.34375 129 65.625 L 129 78.796875 C 129.28125 78.574219 129.667969 78.210938 130.160156 77.589844 L 131.800781 75.9375 C 133.6875 73.488281 135 69.75 135 67.886719 Z M 123 70.054688 C 122.53125 70.230469 121.851562 70.546875 120.984375 71.097656 L 118.628906 72.609375 C 115.734375 74.460938 114 77.214844 114 79.96875 L 114 93 C 114.621094 92.777344 115.605469 92.285156 116.882812 91.324219 L 117.925781 90.65625 C 121.195312 88.136719 123 83.953125 123 82.007812 Z M 17.320312 70.171875 C 16.769531 70.171875 16.277344 70.335938 15.902344 70.652344 C 15.339844 71.121094 15.023438 71.929688 15.023438 72.902344 L 15 87.140625 C 15 89.636719 16.910156 92.261719 19.171875 92.894531 L 32.765625 96.515625 C 33.691406 96.773438 34.511719 96.644531 35.097656 96.164062 C 35.660156 95.695312 35.976562 94.886719 35.988281 93.902344 L 36 79.5 C 36 77.203125 33.667969 74.390625 31.207031 73.734375 L 18.164062 70.289062 C 17.871094 70.207031 17.589844 70.171875 17.320312 70.171875 Z M 43.769531 76.734375 C 43.429688 76.746094 43.089844 76.839844 42.820312 77.0625 C 42.304688 77.496094 42.011719 78.386719 42.011719 79.511719 L 42 93.902344 C 42 96.433594 43.96875 99.117188 46.300781 99.761719 L 59.625 103.582031 C 60.726562 103.886719 61.710938 103.78125 62.296875 103.300781 C 62.765625 102.914062 62.988281 102.28125 62.988281 101.425781 L 63 86.859375 C 63 85.886719 62.625 84.808594 62.027344 83.8125 L 56.167969 80.871094 C 55.289062 80.4375 54.457031 79.863281 53.683594 79.21875 L 44.730469 76.851562 C 44.449219 76.769531 44.097656 76.710938 43.769531 76.734375 Z M 135 78.421875 C 134.777344 78.597656 134.507812 78.84375 134.203125 79.195312 L 132.46875 80.753906 C 130.546875 82.933594 129 86.765625 129 88.628906 L 129 99.550781 C 129.363281 99.222656 129.820312 98.742188 130.347656 98.0625 L 131.671875 96.304688 C 133.605469 93.785156 135 89.285156 135 87.492188 Z M 108 80.824219 C 107.144531 81.011719 105.574219 81.632812 103.605469 83.015625 L 101.390625 84.445312 C 98.050781 86.800781 96 90.1875 96 93.457031 L 96 108.761719 C 96.480469 108.480469 97.171875 108.011719 98.085938 107.25 L 101.296875 104.941406 C 105.398438 101.507812 108 96.316406 108 94.230469 Z M 81.832031 86.203125 L 75.808594 88.722656 C 75.574219 88.816406 75.304688 88.875 75.046875 88.875 C 74.765625 88.875 74.484375 88.816406 74.226562 88.6875 L 69.046875 86.34375 C 69.035156 86.519531 69 86.683594 69 86.859375 L 69 101.425781 C 69 103.992188 71.027344 106.722656 73.429688 107.390625 L 86.519531 110.578125 C 87.550781 110.859375 88.453125 110.730469 89.097656 110.203125 C 89.671875 109.722656 90 108.902344 90 107.90625 L 90 93.175781 C 90 90.574219 87.925781 87.832031 85.488281 87.1875 Z M 123 92.613281 C 122.601562 92.871094 122.121094 93.210938 121.558594 93.667969 L 120.421875 94.429688 C 116.824219 97.277344 114 101.929688 114 104.074219 L 114 117 C 114.28125 116.777344 114.585938 116.507812 114.9375 116.179688 L 117.316406 114.011719 C 120.65625 110.953125 123 106.359375 123 104.15625 Z M 17.273438 99 C 16.734375 99 16.253906 99.152344 15.890625 99.457031 C 15.339844 99.914062 15.023438 100.710938 15.023438 101.683594 L 15 115.933594 C 15 118.441406 16.910156 121.113281 19.183594 121.769531 L 32.238281 125.554688 C 33.269531 125.859375 34.324219 125.671875 35.0625 125.074219 C 35.484375 124.734375 35.988281 124.089844 35.988281 123.011719 L 36 108.585938 C 36 106.054688 34.042969 103.382812 31.734375 102.738281 L 18.164062 99.128906 C 17.847656 99.046875 17.554688 99 17.273438 99 Z M 43.945312 105.890625 C 43.546875 105.949219 43.195312 106.101562 42.890625 106.347656 C 42.328125 106.816406 42.011719 107.613281 42.011719 108.597656 L 42 123.011719 C 42 125.777344 43.617188 128.332031 45.761719 128.953125 L 59.109375 132.820312 C 60.375 133.183594 61.605469 133.042969 62.332031 132.457031 C 62.777344 132.09375 63 131.554688 63 130.828125 L 63 116.25 C 63 113.578125 60.84375 110.4375 58.570312 109.816406 L 45.246094 105.996094 C 44.777344 105.867188 44.34375 105.832031 43.945312 105.890625 Z M 108 106.042969 C 107.273438 106.40625 106.195312 107.085938 104.777344 108.257812 L 101.484375 110.613281 C 97.476562 113.941406 96 118.078125 96 120.796875 L 96 135.316406 C 96.492188 134.917969 97.148438 134.378906 97.957031 133.59375 L 100.839844 130.96875 C 104.871094 127.078125 108 121.429688 108 119.132812 Z M 71.402344 113.484375 C 70.804688 113.484375 70.300781 113.660156 69.902344 113.988281 C 69.328125 114.457031 69 115.277344 69 116.261719 L 69 130.839844 C 69 133.476562 70.523438 135.609375 72.890625 136.300781 L 86.542969 140.261719 C 87.5625 140.554688 88.476562 140.4375 89.109375 139.921875 C 89.683594 139.441406 90 138.644531 90 137.648438 L 90 122.894531 C 90 120.28125 87.914062 117.503906 85.453125 116.8125 L 72.445312 113.636719 C 72.082031 113.542969 71.730469 113.484375 71.402344 113.484375 Z M 71.402344 113.484375 "/>
</g>
</svg>
