<?xml version="1.0" encoding="UTF-8"?>
<svg xmlns="http://www.w3.org/2000/svg" xmlns:xlink="http://www.w3.org/1999/xlink" width="250pt" height="250pt" viewBox="0 0 250 250" version="1.1">
<g id="surface126162">
<path style=" stroke:none;fill-rule:nonzero;fill:rgb(100%,100%,100%);fill-opacity:1;" d="M 121.875 20 C 112.890625 20 103.496094 27.109375 99.6875 36.875 L 96.5625 45 L 70 45 L 70 40 C 70 37.226562 67.773438 35 65 35 L 30 35 C 27.226562 35 25 37.226562 25 40 L 25 46.40625 C 10.292969 50.742188 0 64.316406 0 80 L 0 185 C 0 204.296875 15.703125 220 35 220 L 215 220 C 234.296875 220 250 204.296875 250 185 L 250 80 C 250 60.703125 234.296875 45 215 45 L 203.4375 45 L 200.3125 36.875 C 196.503906 27.109375 187.109375 20 178.125 20 Z M 150 65 C 185.839844 65 215 94.160156 215 130 C 215 165.839844 185.839844 195 150 195 C 114.160156 195 85 165.839844 85 130 C 85 94.160156 114.160156 65 150 65 Z M 35 70 C 40.527344 70 45 74.472656 45 80 C 45 85.527344 40.527344 90 35 90 C 29.472656 90 25 85.527344 25 80 C 25 74.472656 29.472656 70 35 70 Z M 150 75 C 119.667969 75 95 99.667969 95 130 C 95 160.332031 119.667969 185 150 185 C 180.332031 185 205 160.332031 205 130 C 205 99.667969 180.332031 75 150 75 Z M 150 75 "/>
</g>
</svg>
