<?xml version="1.0" encoding="UTF-8"?>
<svg xmlns="http://www.w3.org/2000/svg" xmlns:xlink="http://www.w3.org/1999/xlink" width="250pt" height="250pt" viewBox="0 0 250 250" version="1.1">
<g id="surface126299">
<path style=" stroke:none;fill-rule:nonzero;fill:rgb(100%,100%,100%);fill-opacity:1;" d="M 121.875 20 C 112.363281 20 103.496094 27.070312 99.6875 36.875 L 96.5625 45 L 70 45 L 70 40 C 70 37.246094 67.753906 35 65 35 L 30 35 C 27.246094 35 25 37.246094 25 40 L 25 47.03125 C 10.683594 51.425781 0 64.296875 0 80 L 0 185 C 0 204.277344 15.722656 220 35 220 L 215 220 C 234.277344 220 250 204.277344 250 185 L 250 80 C 250 60.722656 234.277344 45 215 45 L 203.4375 45 L 200.3125 36.875 C 196.503906 27.070312 187.65625 20 178.125 20 Z M 121.875 30 L 178.125 30 C 181.953125 30 188.554688 34.335938 190.9375 40.46875 L 195.3125 51.875 C 196.074219 53.789062 197.949219 55.019531 200 55 L 215 55 C 228.867188 55 240 66.132812 240 80 L 240 185 C 240 198.867188 228.867188 210 215 210 L 35 210 C 21.132812 210 10 198.867188 10 185 L 10 80 C 10 67.558594 18.964844 57.304688 30.78125 55.3125 C 33.183594 54.941406 34.960938 52.890625 35 50.46875 L 35 45 L 60 45 L 60 50 C 60 52.753906 62.246094 55 65 55 L 100 55 C 102.050781 55.019531 103.925781 53.789062 104.6875 51.875 L 109.0625 40.46875 C 111.445312 34.335938 118.046875 30 121.875 30 Z M 150 65 C 114.179688 65 85 94.179688 85 130 C 85 165.820312 114.179688 195 150 195 C 185.820312 195 215 165.820312 215 130 C 215 94.179688 185.820312 65 150 65 Z M 35 70 C 29.472656 70 25 74.472656 25 80 C 25 85.527344 29.472656 90 35 90 C 40.527344 90 45 85.527344 45 80 C 45 74.472656 40.527344 70 35 70 Z M 150 75 C 180.429688 75 205 99.570312 205 130 C 205 160.429688 180.429688 185 150 185 C 119.570312 185 95 160.429688 95 130 C 95 99.570312 119.570312 75 150 75 Z M 150 75 "/>
</g>
</svg>
