<?xml version="1.0" encoding="UTF-8"?>
<svg xmlns="http://www.w3.org/2000/svg" xmlns:xlink="http://www.w3.org/1999/xlink" width="150pt" height="150pt" viewBox="0 0 150 150" version="1.1">
<g id="surface8556500">
<path style=" stroke:none;fill-rule:nonzero;fill:rgb(100%,100%,100%);fill-opacity:1;" d="M 57 0 C 25.863281 0 0 22.476562 0 50.71875 C 0 64.382812 6.128906 76.769531 15.9375 85.875 C 14.496094 90.128906 11.4375 93.515625 8.15625 96.1875 C 6.328125 97.675781 4.546875 98.953125 3.09375 100.21875 C 2.367188 100.851562 1.699219 101.414062 1.125 102.28125 C 0.550781 103.148438 -0.0351562 104.648438 0.375 106.125 L 0.75 107.25 L 1.78125 107.90625 C 4.898438 109.675781 8.683594 109.875 12.65625 109.59375 C 16.628906 109.3125 20.917969 108.410156 25.125 107.25 C 30.925781 105.65625 35.894531 103.757812 40.03125 102.09375 C 48.398438 121.5 69.246094 134.4375 93 134.4375 C 97.03125 134.4375 101.097656 133.886719 104.90625 133.3125 C 109.007812 135.128906 126.902344 142.78125 139.3125 142.78125 C 142.875 142.78125 145.640625 142.148438 147.84375 140.90625 L 148.96875 140.25 L 149.25 139.125 C 150.128906 135.914062 147.410156 133.664062 143.90625 130.875 C 140.378906 128.074219 135.714844 124.347656 133.6875 119.15625 C 143.90625 109.734375 149.71875 96.9375 149.71875 83.71875 C 149.71875 62.132812 133.96875 42.632812 111.28125 35.71875 C 104.121094 14.917969 82.371094 0 57 0 Z M 57 6 C 79.851562 6 98.917969 19.195312 105.375 37.21875 C 105.398438 37.289062 105.445312 37.335938 105.46875 37.40625 C 105.503906 37.5 105.527344 37.59375 105.5625 37.6875 C 105.972656 38.871094 106.300781 40.03125 106.59375 41.25 C 106.804688 42.09375 106.910156 42.914062 107.0625 43.78125 C 107.097656 44.003906 107.121094 44.214844 107.15625 44.4375 C 107.285156 45.234375 107.449219 46.066406 107.53125 46.875 C 107.542969 46.992188 107.519531 47.132812 107.53125 47.25 C 107.625 48.386719 107.71875 49.558594 107.71875 50.71875 C 107.71875 52.253906 107.613281 53.71875 107.4375 55.21875 C 107.261719 56.742188 107.027344 58.242188 106.6875 59.71875 C 106.007812 62.625 104.976562 65.390625 103.6875 68.0625 C 102.398438 70.734375 100.839844 73.277344 99 75.65625 C 98.085938 76.839844 97.042969 78.023438 96 79.125 C 94.957031 80.226562 93.878906 81.304688 92.71875 82.3125 C 91.582031 83.308594 90.398438 84.316406 89.15625 85.21875 C 82.851562 89.777344 75.234375 93.011719 66.9375 94.5 C 63.621094 95.097656 60.234375 95.4375 56.71875 95.4375 C 54.691406 95.4375 52.675781 95.332031 50.71875 95.15625 C 50.625 95.144531 50.53125 95.167969 50.4375 95.15625 C 50.179688 95.132812 49.933594 95.085938 49.6875 95.0625 C 48.996094 94.980469 48.28125 94.886719 47.625 94.78125 C 46.734375 94.640625 45.914062 94.5 45.09375 94.3125 L 44.15625 94.03125 L 43.21875 94.40625 C 39.351562 96.035156 31.464844 99.351562 23.53125 101.53125 C 19.558594 102.621094 15.550781 103.441406 12.1875 103.6875 C 10.699219 103.792969 10.078125 103.347656 8.90625 103.21875 C 9.867188 102.46875 10.675781 101.871094 11.90625 100.875 C 15.902344 97.617188 20.824219 92.90625 22.40625 85.875 L 22.78125 84.09375 L 21.46875 82.875 C 11.871094 74.683594 6 63.28125 6 50.71875 C 6 26.15625 28.734375 6 57 6 Z M 57 6 "/>
</g>
</svg>
