<?xml version="1.0" encoding="UTF-8"?>
<svg xmlns="http://www.w3.org/2000/svg" xmlns:xlink="http://www.w3.org/1999/xlink" width="150pt" height="150pt" viewBox="0 0 150 150" version="1.1">
<g id="surface23110003">
<path style=" stroke:none;fill-rule:nonzero;fill:rgb(100%,100%,100%);fill-opacity:1;" d="M 75 -0.0078125 C 55.808594 -0.0078125 36.613281 7.320312 21.964844 21.964844 C -7.328125 51.261719 -7.328125 98.738281 21.964844 128.03125 C 51.261719 157.328125 98.738281 157.328125 128.03125 128.03125 C 157.328125 98.738281 157.328125 51.261719 128.03125 21.964844 C 113.386719 7.320312 94.191406 -0.0078125 75 -0.0078125 Z M 75 6.035156 C 92.671875 6.035156 110.34375 12.761719 123.789062 26.210938 C 150.6875 53.105469 150.6875 96.894531 123.789062 123.789062 C 96.894531 150.6875 53.105469 150.691406 26.210938 123.789062 C -0.6875 96.894531 -0.6875 53.105469 26.210938 26.210938 C 39.65625 12.761719 57.328125 6.035156 75 6.035156 Z M 75 12.101562 C 59.828125 12.101562 44.652344 17.542969 32.679688 28.4375 L 34.695312 30.453125 C 35.859375 31.617188 35.859375 33.527344 34.695312 34.695312 C 33.527344 35.859375 31.617188 35.859375 30.453125 34.695312 L 28.4375 32.679688 C 6.648438 56.625 6.648438 93.371094 28.4375 117.320312 L 30.453125 115.304688 C 31.617188 114.140625 33.527344 114.140625 34.695312 115.304688 C 35.859375 116.472656 35.859375 118.382812 34.695312 119.546875 L 32.679688 121.5625 C 56.625 143.351562 93.371094 143.351562 117.320312 121.5625 L 115.304688 119.546875 C 114.140625 118.382812 114.140625 116.472656 115.304688 115.304688 C 116.472656 114.140625 118.382812 114.140625 119.546875 115.304688 L 121.5625 117.320312 C 143.351562 93.375 143.351562 56.628906 121.5625 32.679688 L 119.546875 34.695312 C 118.382812 35.859375 116.472656 35.859375 115.304688 34.695312 C 114.140625 33.527344 114.140625 31.617188 115.304688 30.453125 L 117.320312 28.4375 C 105.347656 17.542969 90.171875 12.101562 75 12.101562 Z M 110.109375 37.195312 C 110.777344 37.265625 111.421875 37.558594 111.929688 38.070312 C 112.953125 39.085938 113.121094 40.652344 112.3125 41.84375 L 84.503906 83.65625 C 84.289062 83.992188 83.992188 84.289062 83.652344 84.503906 L 41.839844 112.3125 C 40.632812 113.097656 39.042969 112.949219 38.042969 111.957031 C 37.027344 110.9375 36.878906 109.347656 37.6875 108.160156 L 65.496094 66.347656 C 65.710938 66.007812 66.007812 65.710938 66.34375 65.496094 L 108.15625 37.6875 C 108.753906 37.285156 109.441406 37.125 110.109375 37.195312 Z M 70.164062 70.164062 L 50.941406 99.058594 L 79.832031 79.832031 Z M 70.164062 70.164062 "/>
</g>
</svg>
