<?xml version="1.0" encoding="UTF-8"?>
<svg xmlns="http://www.w3.org/2000/svg" xmlns:xlink="http://www.w3.org/1999/xlink" width="150pt" height="150pt" viewBox="0 0 150 150" version="1.1">
<g id="surface8555832">
<path style=" stroke:none;fill-rule:nonzero;fill:rgb(100%,100%,100%);fill-opacity:1;" d="M 61.5 7.5 C 33.375 7.5 10.5 30.375 10.5 58.5 C 10.5 86.625 33.375 109.5 61.5 109.5 C 89.625 109.5 112.5 86.625 112.5 58.5 C 112.5 30.375 89.625 7.5 61.5 7.5 Z M 58.5 34.5 L 64.5 34.5 L 64.5 55.5 L 85.5 55.5 L 85.5 61.5 L 64.5 61.5 L 64.5 82.5 L 58.5 82.5 L 58.5 61.5 L 37.5 61.5 L 37.5 55.5 L 58.5 55.5 Z M 104.4375 95.90625 C 101.800781 98.929688 98.835938 101.648438 95.625 104.0625 L 130.78125 139.21875 L 139.21875 130.78125 Z M 104.4375 95.90625 "/>
</g>
</svg>
