<?xml version="1.0" encoding="UTF-8"?>
<svg xmlns="http://www.w3.org/2000/svg" xmlns:xlink="http://www.w3.org/1999/xlink" width="150pt" height="150pt" viewBox="0 0 150 150" version="1.1">
<g id="surface3572523">
<path style=" stroke:none;fill-rule:nonzero;fill:rgb(100%,100%,100%);fill-opacity:1;" d="M 131.0625 6 L 115.96875 21.1875 L 109.03125 14.25 C 102 7.230469 90.5625 7.230469 83.53125 14.25 L 69.09375 28.78125 L 65.15625 24.84375 C 64.429688 24.09375 63.363281 23.777344 62.34375 24 C 61.21875 24.199219 60.316406 25.019531 60 26.109375 C 59.683594 27.210938 60.011719 28.382812 60.84375 29.15625 L 75.1875 43.5 L 56.8125 61.96875 L 61.03125 66.1875 L 79.5 47.8125 L 102.1875 70.5 L 83.8125 88.96875 L 88.03125 93.1875 L 106.5 74.8125 L 120.84375 89.15625 C 122.039062 90.351562 123.960938 90.351562 125.15625 89.15625 C 126.351562 87.960938 126.351562 86.039062 125.15625 84.84375 L 121.21875 80.90625 L 135.75 66.46875 C 142.78125 59.4375 142.78125 48.09375 135.75 41.0625 L 135.75 40.96875 L 128.8125 34.03125 L 144 18.9375 Z M 26.71875 59.90625 C 26.589844 59.929688 26.460938 59.964844 26.34375 60 C 25.21875 60.199219 24.316406 61.019531 24 62.109375 C 23.683594 63.210938 24.011719 64.382812 24.84375 65.15625 L 28.78125 69.09375 L 14.25 83.53125 C 7.21875 90.5625 7.21875 102 14.25 109.03125 L 21.1875 115.875 L 6 131.0625 L 18.9375 144 L 34.125 128.8125 L 40.96875 135.75 C 48 142.769531 59.4375 142.769531 66.46875 135.75 L 80.90625 121.21875 L 84.84375 125.15625 C 86.039062 126.351562 87.960938 126.351562 89.15625 125.15625 C 90.351562 123.960938 90.351562 122.039062 89.15625 120.84375 L 29.15625 60.84375 C 28.535156 60.175781 27.632812 59.835938 26.71875 59.90625 Z M 26.71875 59.90625 "/>
</g>
</svg>
