<?xml version="1.0" encoding="UTF-8"?>
<svg xmlns="http://www.w3.org/2000/svg" xmlns:xlink="http://www.w3.org/1999/xlink" width="150pt" height="150pt" viewBox="0 0 150 150" version="1.1">
<g id="surface1011262">
<path style=" stroke:none;fill-rule:nonzero;fill:rgb(100%,100%,100%);fill-opacity:1;" d="M 30.601562 145.800781 C 30 145.800781 29.398438 145.5 28.800781 145.199219 C 27.898438 144.601562 27.300781 143.101562 27.601562 141.898438 L 40.800781 92.699219 L 1.199219 60.601562 C 0 60 -0.300781 58.5 0 57.300781 C 0.300781 56.101562 1.5 55.199219 2.699219 55.199219 L 53.699219 52.5 L 72 4.800781 C 72.601562 3.898438 73.800781 3 75 3 C 76.199219 3 77.398438 3.898438 77.699219 4.800781 L 96 52.5 L 147 55.199219 C 148.199219 55.199219 149.398438 56.101562 149.699219 57.300781 C 150 58.5 149.699219 59.699219 148.800781 60.601562 L 109.199219 92.699219 L 122.398438 141.898438 C 122.699219 143.101562 122.398438 144.300781 121.199219 145.199219 C 120.300781 145.800781 118.800781 146.101562 117.898438 145.199219 L 75 117.601562 L 32.101562 145.199219 C 31.5 145.800781 31.199219 145.800781 30.601562 145.800781 Z M 30.601562 145.800781 "/>
</g>
</svg>
