<?xml version="1.0" encoding="UTF-8"?>
<svg xmlns="http://www.w3.org/2000/svg" xmlns:xlink="http://www.w3.org/1999/xlink" width="150pt" height="150pt" viewBox="0 0 150 150" version="1.1">
<g id="surface6988083">
<path style=" stroke:none;fill-rule:nonzero;fill:rgb(100%,100%,100%);fill-opacity:1;" d="M 59.625 1.21875 C 48.585938 1.417969 40.523438 4.804688 35.625 11.25 C 29.824219 18.890625 28.769531 30.433594 32.4375 45.65625 C 31.089844 47.308594 30.070312 49.816406 30.46875 53.15625 C 31.265625 59.765625 33.832031 62.484375 36 63.5625 C 37.03125 68.753906 39.890625 74.589844 42.65625 77.34375 L 42.65625 78.75 C 42.679688 81.796875 42.667969 84.433594 42.375 87.84375 C 40.535156 92.0625 34.429688 94.535156 27.375 97.3125 C 15.65625 101.917969 1.089844 107.613281 0 125.8125 L -0.1875 129 L 81.28125 129 C 86.988281 141.363281 99.515625 150 114 150 C 133.851562 150 150 133.851562 150 114 C 150 94.148438 133.851562 78 114 78 C 101.671875 78 90.773438 84.175781 84.28125 93.65625 C 82.136719 92.566406 80.390625 91.382812 79.125 90 C 78.585938 89.414062 78.082031 88.710938 77.71875 87.84375 C 77.425781 84.433594 77.507812 81.785156 77.53125 78.75 L 77.53125 77.34375 C 80.214844 74.601562 82.980469 68.753906 84 63.5625 C 86.167969 62.472656 88.734375 59.765625 89.53125 53.15625 C 89.929688 49.886719 88.96875 47.402344 87.65625 45.75 C 89.402344 39.808594 92.964844 24.433594 86.8125 14.53125 C 84.234375 10.382812 80.332031 7.769531 75.1875 6.75 C 72.351562 3.175781 66.914062 1.21875 59.625 1.21875 Z M 114 84 C 130.546875 84 144 97.453125 144 114 C 144 130.546875 130.546875 144 114 144 C 97.453125 144 84 130.546875 84 114 C 84 97.453125 97.453125 84 114 84 Z M 111 96 L 111 111 L 96 111 L 96 117 L 111 117 L 111 132 L 117 132 L 117 117 L 132 117 L 132 111 L 117 111 L 117 96 Z M 79.3125 104.53125 C 79.113281 105.246094 78.902344 105.960938 78.75 106.6875 C 78.902344 105.949219 79.113281 105.246094 79.3125 104.53125 Z M 78.1875 110.625 C 78.082031 111.738281 78 112.851562 78 114 C 78 112.863281 78.082031 111.738281 78.1875 110.625 Z M 78.1875 110.625 "/>
</g>
</svg>
