<?xml version="1.0" encoding="UTF-8"?>
<svg xmlns="http://www.w3.org/2000/svg" xmlns:xlink="http://www.w3.org/1999/xlink" width="150pt" height="150pt" viewBox="0 0 150 150" version="1.1">
<g id="surface3572297">
<path style=" stroke:none;fill-rule:nonzero;fill:rgb(100%,100%,100%);fill-opacity:1;" d="M 75 6 C 48.539062 6 27 27.539062 27 54 C 27 90.234375 70.886719 140.835938 72.75 142.96875 C 73.324219 143.625 74.132812 144 75 144 C 75.867188 144 76.675781 143.613281 77.25 142.96875 C 79.113281 140.835938 123 90.457031 123 54 C 123 27.539062 101.460938 6 75 6 Z M 75 35.53125 L 99 49.96875 L 96 55.03125 L 96 78 L 54 78 L 54 55.03125 L 51 49.96875 Z M 75 42.46875 L 60 51.46875 L 60 72 L 69 72 L 69 57 L 81 57 L 81 72 L 90 72 L 90 51.46875 Z M 75 42.46875 "/>
</g>
</svg>
