<?xml version="1.0" encoding="UTF-8"?>
<svg xmlns="http://www.w3.org/2000/svg" xmlns:xlink="http://www.w3.org/1999/xlink" width="150pt" height="150pt" viewBox="0 0 150 150" version="1.1">
<g id="surface13530277">
<path style=" stroke:none;fill-rule:nonzero;fill:rgb(100%,100%,100%);fill-opacity:1;" d="M 0 15 L 0 88.757812 L 33.46875 55.289062 L 46.382812 74.671875 L 60.984375 71.742188 L 73.242188 84 L 90.960938 84 L 111.960938 99 L 150 99 L 150 15 Z M 112.5 42 C 118.300781 42 123 46.699219 123 52.5 C 123 58.300781 118.300781 63 112.5 63 C 106.699219 63 102 58.300781 102 52.5 C 102 46.699219 106.699219 42 112.5 42 Z M 32.53125 64.710938 L 0 97.242188 L 0 135 L 150 135 L 150 105 L 110.039062 105 L 89.039062 90 L 70.757812 90 L 59.015625 78.257812 L 43.617188 81.328125 Z M 32.53125 64.710938 "/>
</g>
</svg>
