<?xml version="1.0" encoding="UTF-8"?>
<svg xmlns="http://www.w3.org/2000/svg" xmlns:xlink="http://www.w3.org/1999/xlink" width="150pt" height="150pt" viewBox="0 0 150 150" version="1.1">
<g id="surface13448658">
<path style=" stroke:none;fill-rule:nonzero;fill:rgb(100%,100%,100%);fill-opacity:1;" d="M 75 0 C 71.929688 0 66.070312 0.621094 61.21875 4.78125 C 60.515625 5.308594 59.003906 6.621094 56.25 9 L 93.75 9 C 91.347656 6.878906 89.613281 5.355469 88.96875 4.875 C 83.976562 0.597656 78.058594 0 75 0 Z M 27 15 C 25.347656 15 24 16.347656 24 18 L 24 75.75 L 48.9375 95.34375 C 55.371094 90.28125 60.09375 86.613281 61.21875 85.78125 C 67.265625 81.351562 73.300781 81 75 81 C 77.917969 81 83.589844 81.644531 88.875 85.875 C 89.953125 86.742188 94.535156 90.363281 100.875 95.34375 L 126 75.75 L 126 18 C 126 16.347656 124.664062 15 123 15 Z M 72 30 L 78 30 L 78 48 L 96 48 L 96 54 L 78 54 L 78 72 L 72 72 L 72 54 L 54 54 L 54 48 L 72 48 Z M 18 42.65625 C 8.332031 51.222656 1.03125 57.75 1.03125 57.75 L 18 71.0625 Z M 132 42.65625 L 132 71.0625 L 148.96875 57.75 C 148.96875 57.75 141.667969 51.222656 132 42.65625 Z M 0 64.59375 L 0 133.96875 C 10.359375 125.777344 29.871094 110.425781 44.15625 99.1875 L 24 83.4375 L 23.15625 82.78125 Z M 150 64.59375 L 132 78.65625 L 126 83.4375 L 126 83.34375 L 105.75 99.1875 C 119.988281 110.367188 139.558594 125.683594 150 133.875 Z M 75 87 C 74.121094 87 69.480469 87.210938 64.78125 90.65625 C 60.972656 93.457031 13.207031 131.121094 0 141.5625 L 0 147 C 0 148.664062 1.347656 150 3 150 L 147 150 C 148.664062 150 150 148.664062 150 147 L 150 141.46875 C 136.488281 130.875 88.96875 93.632812 85.125 90.5625 C 81.269531 87.46875 77.132812 87 75 87 Z M 75 87 "/>
</g>
</svg>
