<?xml version="1.0" encoding="UTF-8"?>
<svg xmlns="http://www.w3.org/2000/svg" xmlns:xlink="http://www.w3.org/1999/xlink" width="50pt" height="50pt" viewBox="0 0 50 50" version="1.1">
<g id="surface18683890">
<path style=" stroke:none;fill-rule:nonzero;fill:rgb(100%,100%,100%);fill-opacity:1;" d="M 34.5 3 C 32.015625 3 30 5.015625 30 7.5 C 30 9.984375 32.015625 12 34.5 12 C 36.984375 12 39 9.984375 39 7.5 C 39 5.015625 36.984375 3 34.5 3 Z M 22.949219 9.003906 C 21.773438 9.046875 20.183594 10.058594 18.90625 11.691406 L 13.59375 18.5625 L 17.375 21.53125 L 22.84375 14.769531 C 24.542969 12.59375 25.042969 10.140625 23.957031 9.292969 C 23.683594 9.078125 23.339844 8.988281 22.949219 9.003906 Z M 28.726562 12.011719 C 27.5625 12.089844 26.542969 12.679688 25.863281 13.546875 L 25.855469 13.539062 L 19.953125 21.355469 C 18.515625 23.265625 18.59375 25.914062 20.136719 27.738281 L 25.964844 34.609375 L 20.570312 41.710938 C 19.699219 42.863281 19.777344 44.542969 20.878906 45.476562 C 22.054688 46.46875 23.804688 46.265625 24.722656 45.054688 L 31.625 35.804688 C 32.238281 35.011719 32.207031 33.898438 31.554688 33.136719 L 27.511719 26.800781 L 26.140625 26.550781 C 24.066406 26.167969 22.6875 24.171875 23.066406 22.09375 C 23.195312 21.40625 23.503906 20.789062 23.9375 20.285156 L 26.855469 16.378906 C 27.1875 15.9375 27.8125 15.847656 28.253906 16.175781 C 28.695312 16.507812 28.785156 17.136719 28.453125 17.578125 L 27.386719 19.011719 C 27.390625 19.011719 27.394531 19.011719 27.398438 19.011719 C 27.398438 19.011719 26.433594 20.296875 25.847656 21.070312 L 25.527344 21.496094 C 25.523438 21.5 25.519531 21.5 25.511719 21.507812 C 25.464844 21.570312 25.429688 21.617188 25.414062 21.632812 C 25.402344 21.652344 25.390625 21.675781 25.375 21.695312 C 25.320312 21.773438 25.269531 21.855469 25.222656 21.941406 C 25.207031 21.976562 25.183594 22.011719 25.164062 22.050781 C 25.117188 22.160156 25.078125 22.277344 25.050781 22.402344 C 25.046875 22.417969 25.039062 22.4375 25.035156 22.457031 C 24.964844 22.828125 25.019531 23.195312 25.160156 23.519531 C 25.207031 23.625 25.265625 23.726562 25.328125 23.824219 C 25.394531 23.917969 25.472656 24.007812 25.554688 24.089844 C 25.804688 24.335938 26.132812 24.511719 26.503906 24.582031 L 27.800781 24.820312 L 33.835938 25.929688 C 34.828125 26.109375 35.78125 25.453125 35.964844 24.460938 C 36.148438 23.46875 35.488281 22.519531 34.496094 22.335938 L 30.039062 21.519531 L 32.070312 18.523438 C 32.25 18.308594 32.410156 18.082031 32.539062 17.839844 L 32.539062 17.835938 C 32.996094 16.976562 33.148438 15.941406 32.832031 14.847656 C 32.441406 13.492188 31.300781 12.421875 29.929688 12.109375 C 29.515625 12.011719 29.113281 11.984375 28.726562 12.011719 Z M 12.734375 20.082031 C 12.480469 20.113281 12.234375 20.246094 12.066406 20.464844 L 7.570312 26.304688 C 7.234375 26.738281 7.3125 27.363281 7.746094 27.703125 C 8.179688 28.046875 8.8125 27.964844 9.152344 27.527344 L 13.652344 21.683594 C 13.984375 21.246094 13.90625 20.625 13.476562 20.285156 C 13.257812 20.113281 12.988281 20.050781 12.734375 20.082031 Z M 14.097656 24.136719 C 13.84375 24.167969 13.605469 24.296875 13.433594 24.515625 L 10.351562 28.457031 C 10.011719 28.890625 10.089844 29.519531 10.523438 29.859375 C 10.960938 30.199219 11.589844 30.121094 11.929688 29.683594 L 15.007812 25.746094 C 15.351562 25.3125 15.273438 24.683594 14.835938 24.34375 C 14.621094 24.171875 14.355469 24.109375 14.097656 24.136719 Z M 14.097656 24.136719 "/>
</g>
</svg>
