<?xml version="1.0" encoding="UTF-8"?>
<svg xmlns="http://www.w3.org/2000/svg" xmlns:xlink="http://www.w3.org/1999/xlink" width="150pt" height="150pt" viewBox="0 0 150 150" version="1.1">
<g id="surface6846192">
<path style=" stroke:none;fill-rule:nonzero;fill:rgb(100%,100%,100%);fill-opacity:1;" d="M 47.71875 5.90625 C 47.589844 5.929688 47.460938 5.964844 47.34375 6 C 45.949219 6.316406 44.964844 7.570312 45 9 L 45 31.6875 L 38.15625 24.84375 C 37.429688 24.09375 36.363281 23.777344 35.34375 24 C 34.21875 24.199219 33.316406 25.019531 33 26.109375 C 32.683594 27.210938 33.011719 28.382812 33.84375 29.15625 L 45.46875 40.6875 C 45.527344 40.78125 45.585938 40.875 45.65625 40.96875 L 45.84375 41.15625 C 45.902344 41.226562 45.960938 41.285156 46.03125 41.34375 C 46.066406 41.34375 46.089844 41.34375 46.125 41.34375 C 46.324219 41.53125 46.546875 41.683594 46.78125 41.8125 C 46.816406 41.8125 46.839844 41.8125 46.875 41.8125 C 46.933594 41.847656 47.003906 41.882812 47.0625 41.90625 C 47.097656 41.90625 47.121094 41.90625 47.15625 41.90625 C 47.554688 42.023438 47.964844 42.046875 48.375 42 C 48.433594 42 48.503906 42 48.5625 42 C 48.820312 41.941406 49.078125 41.847656 49.3125 41.71875 C 49.710938 41.519531 50.0625 41.226562 50.34375 40.875 L 62.15625 29.15625 C 63.351562 27.960938 63.351562 26.039062 62.15625 24.84375 C 60.960938 23.648438 59.039062 23.648438 57.84375 24.84375 L 51 31.6875 L 51 9 C 51.035156 8.132812 50.683594 7.300781 50.0625 6.714844 C 49.429688 6.117188 48.574219 5.824219 47.71875 5.90625 Z M 110.8125 42 C 105.574219 42 101.0625 43.183594 97.40625 45.375 C 101.097656 47.332031 104.097656 50.507812 106.125 54.65625 C 109.324219 61.207031 109.441406 68.660156 108.09375 74.0625 C 108.65625 75.960938 108.820312 78.128906 108.5625 80.25 C 107.953125 85.359375 106.042969 88.511719 104.0625 90.46875 C 103.300781 93 102.152344 95.824219 100.5 98.25 C 100.5 98.953125 100.476562 99.621094 100.5 100.3125 C 101.847656 101.144531 104.566406 102.234375 106.3125 102.9375 C 112.863281 105.574219 122.964844 109.664062 127.125 120 L 141 120 C 141.820312 120 142.59375 119.660156 143.15625 119.0625 C 143.71875 118.464844 144.046875 117.632812 144 116.8125 C 143.308594 105.046875 133.945312 101.296875 127.125 98.53125 C 123.492188 97.054688 120.070312 95.683594 119.0625 93.65625 C 118.910156 91.734375 118.957031 90.164062 118.96875 88.40625 L 118.96875 87.9375 C 120.621094 86.015625 121.980469 82.757812 122.625 79.875 C 124.042969 78.925781 125.625 77.027344 126.09375 73.03125 C 126.304688 71.273438 126.011719 69.691406 125.34375 68.4375 C 126.808594 64.40625 126.75 57.925781 124.3125 52.96875 C 122.261719 48.796875 118.851562 46.324219 114.5625 45.75 L 113.53125 43.6875 C 113.027344 42.667969 111.949219 42 110.8125 42 Z M 85.78125 45 C 78.5625 45 72.328125 47.050781 67.875 50.71875 C 70.441406 52.6875 72.5625 55.289062 74.15625 58.5 C 77.320312 64.863281 78.1875 73.347656 76.40625 80.0625 C 77.039062 82.089844 77.238281 84.339844 76.96875 86.625 C 76.324219 92.179688 74.285156 95.554688 72.1875 97.59375 C 71.378906 100.40625 69.996094 103.769531 68.15625 106.5 C 68.144531 107.648438 68.203125 108.644531 68.25 109.78125 C 69.585938 110.765625 72.773438 112.136719 75 113.0625 C 82.511719 116.167969 93.199219 120.609375 97.3125 132.09375 L 120 132 C 120.820312 132 121.59375 131.660156 122.15625 131.0625 C 122.71875 130.464844 123.046875 129.632812 123 128.8125 C 122.226562 115.804688 111.714844 111.632812 104.0625 108.5625 C 99.820312 106.863281 95.859375 105.199219 94.6875 102.75 C 94.511719 100.558594 94.476562 98.835938 94.5 96.84375 L 94.5 96.28125 C 96.398438 94.171875 98.097656 90.398438 98.8125 87.09375 C 100.371094 86.121094 102.117188 83.988281 102.65625 79.5 C 102.890625 77.53125 102.492188 75.703125 101.71875 74.34375 C 103.394531 69.949219 103.394531 62.824219 100.6875 57.28125 C 98.390625 52.582031 94.582031 49.699219 89.71875 49.125 L 88.40625 46.6875 C 87.902344 45.667969 86.917969 45 85.78125 45 Z M 52.96875 48 C 42.527344 48 34.277344 51.878906 29.625 58.96875 C 25.628906 65.050781 24.785156 72.890625 27.375 80.25 C 26.484375 81.621094 25.96875 83.578125 26.25 85.96875 C 26.824219 90.949219 28.675781 93.199219 30.375 94.21875 C 31.148438 97.863281 32.964844 102.128906 35.0625 104.4375 L 35.0625 105.28125 C 35.085938 107.542969 35.167969 109.429688 34.96875 111.9375 C 33.703125 114.820312 29.683594 116.601562 25.125 118.59375 C 17.390625 121.992188 6.820312 126.621094 6 140.8125 C 5.953125 141.632812 6.28125 142.464844 6.84375 143.0625 C 7.40625 143.660156 8.179688 144 9 144 L 90 144 C 90.832031 144 91.582031 143.660156 92.15625 143.0625 C 92.71875 142.464844 93.046875 141.632812 93 140.8125 C 92.179688 126.597656 81.410156 122.167969 72.75 118.59375 C 67.898438 116.589844 63.621094 114.796875 62.34375 111.9375 C 62.144531 109.429688 62.226562 107.542969 62.25 105.28125 L 62.25 104.4375 C 64.300781 102.140625 66.082031 97.863281 66.84375 94.21875 C 68.542969 93.199219 70.394531 90.9375 70.96875 85.96875 C 71.214844 83.800781 70.886719 81.796875 70.03125 80.34375 C 71.941406 75.492188 71.90625 67.347656 68.8125 61.125 C 66.339844 56.15625 62.214844 53.179688 57.09375 52.59375 L 55.6875 49.6875 C 55.183594 48.65625 54.117188 48 52.96875 48 Z M 52.96875 48 "/>
</g>
</svg>
