<?xml version="1.0" encoding="UTF-8"?>
<svg xmlns="http://www.w3.org/2000/svg" xmlns:xlink="http://www.w3.org/1999/xlink" width="150pt" height="150pt" viewBox="0 0 150 150" version="1.1">
<g id="surface728300">
<path style=" stroke:none;fill-rule:nonzero;fill:rgb(100%,100%,100%);fill-opacity:1;" d="M 35.15625 24.9375 C 34.78125 24.9375 34.394531 24.984375 34.03125 25.125 C 25.089844 28.582031 21.328125 39.082031 20.25 42.75 L 1.40625 54.46875 C 0.09375 55.289062 -0.410156 56.929688 0.28125 58.3125 C 0.363281 58.476562 7.722656 73.371094 8.8125 83.25 C 10.183594 82.851562 11.144531 82.617188 11.25 82.59375 C 13.746094 81.761719 36.210938 79.125 44.90625 94.5 C 45.714844 95.941406 45.222656 97.816406 43.78125 98.625 C 43.3125 98.894531 42.785156 99 42.28125 99 C 41.238281 99 40.207031 98.472656 39.65625 97.5 C 32.578125 84.972656 13.125 88.347656 12.9375 88.40625 C 12.820312 88.441406 10.992188 88.828125 8.71875 89.53125 C 8.378906 96.292969 9.046875 100.898438 11.25 106.96875 C 11.648438 108.035156 12.117188 108.949219 12.5625 109.78125 C 14.414062 109.746094 16.476562 109.617188 18.375 109.5 C 18.714844 109.476562 19.078125 109.5 19.40625 109.59375 C 19.242188 109.546875 21.574219 109.839844 30.1875 107.8125 C 34.628906 106.921875 43.96875 103.839844 50.625 101.53125 C 58.523438 98.625 65.425781 96.433594 71.53125 94.5 C 81.269531 91.429688 89.71875 88.78125 98.90625 84.28125 C 115.019531 76.371094 121.253906 66.105469 121.3125 66 C 122.355469 64.382812 123.703125 62.097656 124.78125 59.8125 C 122.730469 56.214844 119.320312 52.78125 115.21875 50.625 C 107.929688 46.792969 100.160156 47.613281 93.9375 52.96875 C 93.070312 53.765625 91.160156 54.785156 89.15625 55.6875 C 89.777344 57.328125 90.398438 58.898438 90.75 59.90625 C 90.808594 60.035156 94.136719 67.828125 91.3125 74.90625 C 90.84375 76.078125 89.695312 76.78125 88.5 76.78125 C 88.125 76.78125 87.738281 76.746094 87.375 76.59375 C 85.839844 75.984375 85.078125 74.191406 85.6875 72.65625 C 87.585938 67.921875 85.148438 62.121094 85.125 62.0625 C 84.5625 60.480469 84 58.851562 83.4375 57.375 C 79.699219 52.664062 75.316406 52.828125 71.25 53.4375 L 70.875 53.53125 C 65.179688 54.492188 53.425781 56.425781 46.21875 44.8125 C 45.246094 42.515625 40.582031 32.636719 37.78125 26.625 C 37.277344 25.546875 36.28125 24.949219 35.15625 24.9375 Z M 92.4375 30 C 91.242188 30.222656 90.292969 31.148438 90.046875 32.34375 C 89.800781 33.539062 90.304688 34.757812 91.3125 35.4375 C 91.3125 35.4375 105.269531 44.71875 120.5625 37.59375 C 121.078125 43.019531 123.046875 48.421875 126.9375 52.59375 C 130.863281 56.800781 136.230469 59.847656 142.125 60.28125 C 137.167969 70.898438 138.375 82.289062 144.84375 89.0625 C 145.546875 89.964844 146.707031 90.398438 147.832031 90.164062 C 148.945312 89.929688 149.847656 89.074219 150.128906 87.960938 C 150.410156 86.859375 150.035156 85.675781 149.15625 84.9375 C 144.046875 79.582031 142.652344 68.460938 149.4375 58.6875 C 150.105469 57.679688 150.09375 56.367188 149.425781 55.359375 C 148.746094 54.351562 147.527344 53.859375 146.34375 54.09375 C 140.835938 55.3125 135.375 52.792969 131.34375 48.46875 C 127.3125 44.144531 125.085938 38.15625 125.90625 33.5625 C 126.140625 32.378906 125.648438 31.160156 124.640625 30.480469 C 123.632812 29.8125 122.320312 29.800781 121.3125 30.46875 C 107.519531 39.667969 94.6875 30.5625 94.6875 30.5625 C 94.042969 30.082031 93.234375 29.882812 92.4375 30 Z M 33 45 C 34.652344 45 36 46.347656 36 48 C 36 49.652344 34.652344 51 33 51 C 31.347656 51 30 49.652344 30 48 C 30 46.347656 31.347656 45 33 45 Z M 39 54 C 40.652344 54 42 55.347656 42 57 C 42 58.652344 40.652344 60 39 60 C 37.347656 60 36 58.652344 36 57 C 36 55.347656 37.347656 54 39 54 Z M 48 60 C 49.652344 60 51 61.347656 51 63 C 51 64.652344 49.652344 66 48 66 C 46.347656 66 45 64.652344 45 63 C 45 61.347656 46.347656 60 48 60 Z M 60 63 C 61.652344 63 63 64.347656 63 66 C 63 67.652344 61.652344 69 60 69 C 58.347656 69 57 67.652344 57 66 C 57 64.347656 58.347656 63 60 63 Z M 72 63 C 73.652344 63 75 64.347656 75 66 C 75 67.652344 73.652344 69 72 69 C 70.347656 69 69 67.652344 69 66 C 69 64.347656 70.347656 63 72 63 Z M 127.59375 67.3125 C 127.03125 68.261719 126.527344 68.859375 126.375 69.09375 C 126.152344 69.480469 119.226562 81.023438 101.53125 89.71875 C 91.933594 94.417969 83.285156 97.066406 73.3125 100.21875 C 67.265625 102.128906 60.410156 104.378906 52.59375 107.25 C 45.386719 109.757812 36.140625 112.699219 31.5 113.625 C 25.277344 115.089844 20.683594 115.757812 18.46875 115.5 C 17.753906 115.546875 16.828125 115.640625 15.84375 115.6875 C 16.546875 122.179688 19.101562 128.414062 22.40625 131.0625 C 22.945312 131.496094 23.613281 131.71875 24.28125 131.71875 C 24.597656 131.71875 24.902344 131.636719 25.21875 131.53125 C 26.121094 131.226562 45.597656 124.171875 47.8125 123.375 C 48.914062 122.976562 49.675781 122.003906 49.78125 120.84375 C 49.804688 120.5625 49.957031 118.769531 49.6875 116.71875 L 62.71875 111.5625 L 73.6875 111 C 73.851562 110.988281 74.003906 110.941406 74.15625 110.90625 L 75.5625 110.625 C 79.921875 109.769531 86.496094 108.457031 101.8125 101.0625 C 118.289062 93.117188 126.339844 84.339844 129.65625 79.78125 C 129.9375 79.394531 130.054688 78.9375 130.125 78.46875 C 130.863281 73.78125 129.011719 69.644531 127.59375 67.3125 Z M 127.59375 67.3125 "/>
</g>
</svg>
