<?xml version="1.0" encoding="UTF-8"?>
<svg xmlns="http://www.w3.org/2000/svg" xmlns:xlink="http://www.w3.org/1999/xlink" width="150pt" height="150pt" viewBox="0 0 150 150" version="1.1">
<g id="surface696169">
<path style=" stroke:none;fill-rule:nonzero;fill:rgb(100%,100%,100%);fill-opacity:1;" d="M 3.5625 0 C 2.8125 0 2.097656 0.339844 1.5 0.9375 C 0.304688 2.132812 0.304688 3.867188 1.5 5.0625 L 145.5 149.0625 C 146.097656 149.660156 146.964844 150 147.5625 150 C 148.160156 150 149.121094 149.660156 149.71875 149.0625 C 150.914062 147.867188 150.914062 146.132812 149.71875 144.9375 L 127.03125 122.25 C 141.503906 110.917969 150 93.597656 150 74.71875 C 150 51.621094 137.121094 30.9375 116.71875 20.4375 C 115.21875 19.839844 113.378906 20.0625 112.78125 21.5625 C 112.183594 23.660156 112.804688 25.464844 114 26.0625 C 132.597656 35.367188 144 54.304688 144 75 C 144 92.074219 136.136719 107.917969 122.90625 118.125 L 113.34375 108.5625 C 123.234375 100.488281 129.28125 88.242188 129.28125 75 C 129.28125 59.097656 120.597656 44.4375 106.5 36.9375 C 105 36.035156 103.183594 36.5625 102.28125 38.0625 C 101.378906 39.5625 102.023438 41.402344 103.21875 42 C 115.21875 48.597656 123 61.195312 123 75 C 123 86.460938 117.761719 97.195312 108.9375 104.15625 L 97.5 92.71875 C 103.828125 89.144531 108 82.511719 108 75 C 108 65.695312 101.71875 57.621094 92.71875 55.21875 C 91.21875 54.914062 89.355469 55.78125 89.0625 57.28125 C 88.769531 58.78125 89.71875 60.632812 91.21875 60.9375 C 97.523438 62.4375 102 68.121094 102 74.71875 C 102 80.671875 98.332031 86.097656 93 88.21875 L 81 76.21875 L 81 18.9375 C 81 12.035156 76.464844 9 72.5625 9 C 69.867188 9 67.183594 10.160156 64.78125 12.5625 L 41.0625 36.28125 L 5.71875 0.9375 C 5.121094 0.339844 4.3125 0 3.5625 0 Z M 33 44.0625 L 30 47.34375 L 30 102.5625 L 64.5 137.0625 C 67.804688 140.367188 70.464844 141 72.5625 141 C 77.660156 141 81 136.535156 81 129.9375 L 81 92.0625 Z M 9 48 C 3.902344 48 0 51.902344 0 57 L 0 93 C 0 98.097656 3.902344 102 9 102 L 24 102 L 24 48 Z M 9 48 "/>
</g>
</svg>
