<?xml version="1.0" encoding="UTF-8"?>
<svg xmlns="http://www.w3.org/2000/svg" xmlns:xlink="http://www.w3.org/1999/xlink" width="150pt" height="150pt" viewBox="0 0 150 150" version="1.1">
<g id="surface304493">
<path style=" stroke:none;fill-rule:nonzero;fill:rgb(100%,100%,100%);fill-opacity:1;" d="M 75 12.5 C 40.480469 12.5 12.5 40.480469 12.5 75 C 12.5 109.519531 40.480469 137.5 75 137.5 C 109.519531 137.5 137.5 109.519531 137.5 75 C 137.5 40.480469 109.519531 12.5 75 12.5 Z M 75 29.6875 C 86.21875 29.6875 95.3125 38.78125 95.3125 50 C 95.3125 61.21875 86.21875 70.3125 75 70.3125 C 63.78125 70.3125 54.6875 61.21875 54.6875 50 C 54.6875 38.78125 63.78125 29.6875 75 29.6875 Z M 75 125 C 57.6875 125 42.4375 116.199219 33.460938 102.832031 C 40.46875 92.644531 62.789062 87.5 75 87.5 C 87.210938 87.5 109.53125 92.644531 116.539062 102.832031 C 107.5625 116.199219 92.3125 125 75 125 Z M 75 125 "/>
</g>
</svg>
