<?xml version="1.0" encoding="UTF-8"?>
<svg xmlns="http://www.w3.org/2000/svg" xmlns:xlink="http://www.w3.org/1999/xlink" width="150pt" height="150pt" viewBox="0 0 150 150" version="1.1">
<g id="surface320218">
<path style=" stroke:none;fill-rule:nonzero;fill:rgb(100%,100%,100%);fill-opacity:1;" d="M 141.480469 63.664062 L 123.75 60.765625 C 122.710938 57.207031 121.292969 53.785156 119.515625 50.550781 L 129.867188 35.800781 C 130.703125 34.609375 130.558594 32.984375 129.53125 31.953125 L 117.863281 20.292969 C 116.824219 19.253906 115.183594 19.117188 113.992188 19.980469 L 99.460938 30.421875 C 96.195312 28.617188 92.746094 27.183594 89.164062 26.140625 L 86.074219 8.484375 C 85.820312 7.050781 84.574219 6 83.117188 6 L 66.617188 6 C 65.148438 6 63.894531 7.066406 63.65625 8.515625 L 60.789062 26.078125 C 57.1875 27.113281 53.734375 28.53125 50.476562 30.316406 L 35.988281 19.964844 C 34.789062 19.109375 33.160156 19.246094 32.121094 20.28125 L 20.460938 31.945312 C 19.429688 32.972656 19.285156 34.59375 20.125 35.785156 L 30.320312 50.371094 C 28.507812 53.65625 27.058594 57.136719 26.007812 60.753906 L 8.515625 63.664062 C 7.066406 63.90625 6.007812 65.160156 6.007812 66.625 L 6.007812 83.125 C 6.007812 84.578125 7.050781 85.824219 8.480469 86.078125 L 25.972656 89.179688 C 27.019531 92.789062 28.46875 96.265625 30.289062 99.5625 L 19.964844 114 C 19.113281 115.191406 19.246094 116.824219 20.28125 117.867188 L 31.945312 129.539062 C 32.976562 130.570312 34.597656 130.714844 35.789062 129.875 L 50.398438 119.644531 C 53.679688 121.445312 57.144531 122.878906 60.734375 123.914062 L 63.664062 141.496094 C 63.898438 142.941406 65.152344 144 66.617188 144 L 83.117188 144 C 84.574219 144 85.816406 142.957031 86.070312 141.523438 L 89.203125 123.855469 C 92.800781 122.796875 96.25 121.355469 99.496094 119.550781 L 114.210938 129.871094 C 115.402344 130.714844 117.023438 130.570312 118.054688 129.539062 L 129.71875 117.867188 C 130.757812 116.824219 130.894531 115.183594 130.03125 113.992188 L 119.539062 99.421875 C 121.316406 96.179688 122.730469 92.753906 123.757812 89.195312 L 141.511719 86.078125 C 142.949219 85.828125 143.992188 84.578125 143.992188 83.125 L 143.992188 66.625 C 143.996094 65.152344 142.933594 63.898438 141.480469 63.664062 Z M 75 96 C 63.402344 96 54 86.597656 54 75 C 54 63.402344 63.402344 54 75 54 C 86.597656 54 96 63.402344 96 75 C 96 86.597656 86.597656 96 75 96 Z M 75 96 "/>
</g>
</svg>
