<?xml version="1.0" encoding="UTF-8"?>
<svg xmlns="http://www.w3.org/2000/svg" xmlns:xlink="http://www.w3.org/1999/xlink" width="150pt" height="150pt" viewBox="0 0 150 150" version="1.1">
<g id="surface302435">
<path style=" stroke:none;fill-rule:nonzero;fill:rgb(100%,100%,100%);fill-opacity:1;" d="M 75 3.152344 C 74.347656 3.152344 73.699219 3.359375 73.140625 3.78125 L 4.140625 57.632812 C 2.851562 58.652344 2.613281 60.539062 3.632812 61.859375 C 4.652344 63.148438 6.539062 63.386719 7.855469 62.367188 L 12 59.132812 L 12 138 C 12 139.648438 13.351562 141 15 141 L 54 141 L 54 81 L 96 81 L 96 141 L 135 141 C 136.648438 141 138 139.648438 138 138 L 138 59.132812 L 142.140625 62.367188 C 142.710938 62.789062 143.339844 63 144 63 C 144.898438 63 145.765625 62.609375 146.367188 61.859375 C 147.386719 60.539062 147.148438 58.652344 145.855469 57.632812 L 123 39.808594 L 123 18 C 123 16.351562 121.648438 15 120 15 L 108 15 C 107.191406 15 106.4375 15.328125 105.867188 15.867188 C 105.328125 16.4375 105 17.191406 105 18 L 105 25.769531 L 76.855469 3.78125 C 76.300781 3.359375 75.652344 3.152344 75 3.152344 Z M 60 87.296875 L 60 141 L 90 141 L 90 87.296875 Z M 81 108 C 82.648438 108 84 109.351562 84 111 C 84 112.648438 82.648438 114 81 114 C 79.351562 114 78 112.648438 78 111 C 78 109.351562 79.351562 108 81 108 Z M 81 108 "/>
</g>
</svg>
