<?xml version="1.0" encoding="UTF-8"?>
<svg xmlns="http://www.w3.org/2000/svg" xmlns:xlink="http://www.w3.org/1999/xlink" width="150pt" height="150pt" viewBox="0 0 150 150" version="1.1">
<g id="surface302707">
<path style=" stroke:none;fill-rule:nonzero;fill:rgb(100%,100%,100%);fill-opacity:1;" d="M 51.273438 9 C 46.164062 9 42 13.171875 42 18.300781 L 42 48 C 42 53.128906 45.871094 57 51 57 L 67.148438 57 L 72.316406 67.34375 C 72.828125 68.359375 73.863281 69 75 69 C 76.136719 69 77.175781 68.359375 77.683594 67.34375 L 82.851562 57 L 99.273438 57 C 104.40625 57 108.273438 53.128906 108.273438 48 L 108.273438 18.300781 C 108.273438 13.171875 104.113281 9 99 9 Z M 42.234375 69 C 29.152344 69 22.5 75.546875 22.5 84.546875 C 22.5 87.410156 24.132812 92.726562 24.132812 92.726562 C 24.132812 92.726562 22.5 93.546875 22.5 96.820312 C 22.5 100.914062 24.542969 101.726562 26.179688 101.726562 C 26.585938 105.472656 28.636719 110.027344 30 110.726562 L 30 118.089844 C 27.0625 125.804688 10.199219 124.816406 6.175781 136.628906 C 5.445312 138.773438 7.132812 141 9.398438 141 L 71.589844 141 C 73.90625 141 75.628906 138.671875 74.777344 136.519531 C 70.152344 124.820312 50.929688 125.777344 48 118.089844 L 48 110.726562 C 49.359375 110.027344 51.132812 105.472656 51.542969 101.726562 C 53.179688 101.726562 55.222656 100.910156 55.222656 96.820312 C 55.222656 93.546875 53.589844 92.726562 53.589844 92.726562 C 53.589844 92.726562 55.222656 87.40625 55.222656 84.546875 C 55.222656 78.816406 52.113281 72 44.179688 72 Z M 111.234375 69 C 98.152344 69 91.5 75.546875 91.5 84.546875 C 91.5 87.410156 93.132812 92.726562 93.132812 92.726562 C 93.132812 92.726562 91.5 93.546875 91.5 96.820312 C 91.5 100.914062 93.542969 101.726562 95.179688 101.726562 C 95.585938 105.472656 97.636719 110.027344 99 110.726562 L 99 118.089844 C 96.0625 125.804688 79.199219 124.816406 75.175781 136.628906 C 74.445312 138.773438 76.132812 141 78.398438 141 L 140.589844 141 C 142.90625 141 144.628906 138.671875 143.777344 136.519531 C 139.152344 124.820312 119.929688 125.777344 117 118.089844 L 117 110.726562 C 118.359375 110.027344 120.132812 105.472656 120.542969 101.726562 C 122.179688 101.726562 124.222656 100.910156 124.222656 96.820312 C 124.222656 93.546875 122.589844 92.726562 122.589844 92.726562 C 122.589844 92.726562 124.222656 87.40625 124.222656 84.546875 C 124.222656 78.816406 121.113281 72 113.179688 72 Z M 111.234375 69 "/>
</g>
</svg>
