<?xml version="1.0" encoding="UTF-8"?>
<svg xmlns="http://www.w3.org/2000/svg" xmlns:xlink="http://www.w3.org/1999/xlink" width="150pt" height="150pt" viewBox="0 0 150 150" version="1.1">
<g id="surface305494">
<path style=" stroke:none;fill-rule:nonzero;fill:rgb(100%,100%,100%);fill-opacity:1;" d="M 0 21 L 0 29.34375 C 9.035156 37.207031 60.867188 82.394531 64.96875 85.96875 C 69.1875 89.648438 73.394531 90 75 90 C 76.605469 90 80.8125 89.648438 85.03125 85.96875 C 89.285156 82.265625 144.140625 34.441406 150 29.34375 L 150 21 Z M 0 37.3125 L 0 112.59375 L 45.375 76.78125 C 30.667969 63.984375 9.691406 45.75 0 37.3125 Z M 150 37.3125 C 140.847656 45.28125 119.542969 63.796875 104.625 76.78125 L 150 112.5 Z M 49.96875 80.8125 L 0 120.1875 L 0 129 L 150 129 L 150 120.09375 L 100.03125 80.8125 C 94.21875 85.875 90.035156 89.542969 88.96875 90.46875 C 83.214844 95.472656 77.273438 96 75 96 C 72.726562 96 66.785156 95.484375 61.03125 90.46875 C 59.976562 89.554688 55.792969 85.886719 49.96875 80.8125 Z M 49.96875 80.8125 "/>
</g>
</svg>
