<?xml version="1.0" encoding="UTF-8"?>
<svg xmlns="http://www.w3.org/2000/svg" xmlns:xlink="http://www.w3.org/1999/xlink" width="150pt" height="150pt" viewBox="0 0 150 150" version="1.1">
<g id="surface302168">
<path style=" stroke:none;fill-rule:nonzero;fill:rgb(100%,100%,100%);fill-opacity:1;" d="M 66 9 C 64.917969 8.984375 63.910156 9.554688 63.367188 10.488281 C 62.820312 11.421875 62.820312 12.578125 63.367188 13.511719 C 63.910156 14.445312 64.917969 15.015625 66 15 L 135 15 L 135 135 L 96 135 C 94.917969 134.984375 93.910156 135.554688 93.367188 136.488281 C 92.820312 137.421875 92.820312 138.578125 93.367188 139.511719 C 93.910156 140.445312 94.917969 141.015625 96 141 L 138 141 C 139.65625 141 141 139.65625 141 138 L 141 12 C 141 10.34375 139.65625 9 138 9 Z M 76.5 21 C 69.058594 21 63 27.058594 63 34.5 C 63 41.941406 69.058594 48 76.5 48 C 83.941406 48 90 41.941406 90 34.5 C 90 27.058594 83.941406 21 76.5 21 Z M 113.96875 32.96875 C 112.75 32.972656 111.652344 33.710938 111.191406 34.84375 C 110.730469 35.972656 111.003906 37.269531 111.878906 38.121094 L 118.757812 45 L 99 45 C 97.917969 44.984375 96.910156 45.554688 96.367188 46.488281 C 95.820312 47.421875 95.820312 48.578125 96.367188 49.511719 C 96.910156 50.445312 97.917969 51.015625 99 51 L 118.757812 51 L 111.878906 57.878906 C 111.09375 58.632812 110.78125 59.75 111.054688 60.800781 C 111.328125 61.851562 112.148438 62.671875 113.199219 62.945312 C 114.25 63.21875 115.367188 62.90625 116.121094 62.121094 L 127.855469 50.382812 C 128.601562 49.820312 129.035156 48.941406 129.039062 48.003906 C 129.042969 47.070312 128.609375 46.191406 127.867188 45.621094 C 127.863281 45.617188 127.859375 45.613281 127.851562 45.609375 L 116.121094 33.878906 C 115.554688 33.296875 114.78125 32.972656 113.972656 32.96875 Z M 37.675781 48 C 34.992188 48 32.496094 49.445312 31.175781 51.75 L 22.304688 66.53125 C 20.527344 69.648438 21.03125 73.601562 23.496094 75.925781 C 24.917969 77.265625 26.757812 78 28.675781 78 C 31.359375 78 33.859375 76.554688 35.171875 74.257812 L 42 63 L 49.742188 63 L 41.703125 84.46875 C 39.664062 88.546875 40.234375 93.453125 43.121094 96.914062 L 75 138.394531 C 76.21875 140.027344 78.164062 141 80.203125 141 C 82.574219 141 84.6875 139.769531 85.851562 137.707031 C 87.023438 135.644531 86.992188 133.199219 85.757812 131.144531 L 62.589844 94.390625 L 72.019531 72.125 L 81.699219 81.804688 C 83.117188 83.21875 85 84 87.007812 84 L 100.507812 84 C 102.707031 84 104.785156 83.035156 106.214844 81.351562 C 107.640625 79.675781 108.261719 77.449219 107.902344 75.246094 C 107.320312 71.683594 103.996094 69 100.179688 69 L 90.105469 69 L 77.457031 56.351562 C 72.074219 50.964844 64.914062 48 57.304688 48 Z M 35.960938 96.601562 L 31.765625 105 L 16.5 105 C 12.363281 105 9 108.359375 9 112.492188 C 9 116.628906 12.363281 119.992188 16.5 119.992188 L 36.867188 119.992188 C 39.589844 119.992188 42.105469 118.511719 43.429688 116.121094 L 46.3125 110.910156 L 38.429688 100.652344 C 37.410156 99.40625 36.585938 98.039062 35.960938 96.601562 Z M 35.960938 96.601562 "/>
</g>
</svg>
