<?xml version="1.0" encoding="UTF-8"?>
<svg xmlns="http://www.w3.org/2000/svg" xmlns:xlink="http://www.w3.org/1999/xlink" width="150pt" height="150pt" viewBox="0 0 150 150" version="1.1">
<g id="surface303870">
<path style=" stroke:none;fill-rule:nonzero;fill:rgb(100%,100%,100%);fill-opacity:1;" d="M 75.09375 18 C 74.285156 17.976562 73.5 18.28125 72.914062 18.84375 C 72.328125 19.40625 72 20.191406 72 21 L 72 43.582031 C 71.953125 43.898438 71.953125 44.226562 72 44.542969 L 72 70.757812 L 45 97.757812 L 32.121094 84.878906 C 31.546875 84.304688 30.761719 83.988281 29.953125 84 C 29.167969 84.011719 28.429688 84.328125 27.878906 84.878906 L 0.878906 111.878906 C 0.09375 112.628906 -0.222656 113.753906 0.0585938 114.796875 C 0.328125 115.851562 1.148438 116.671875 2.203125 116.941406 C 3.246094 117.222656 4.371094 116.90625 5.121094 116.121094 L 30 91.242188 L 40.757812 102 L 0.878906 141.878906 C 0.164062 142.570312 -0.164062 143.566406 0 144.539062 L 0 150 L 150 150 L 150 144.527344 C 150.164062 143.554688 149.835938 142.558594 149.121094 141.878906 L 109.242188 102 L 120 91.242188 L 144.878906 116.121094 C 145.628906 116.90625 146.753906 117.222656 147.796875 116.941406 C 148.851562 116.671875 149.671875 115.851562 149.941406 114.796875 C 150.222656 113.753906 149.90625 112.628906 149.121094 111.878906 L 122.121094 84.878906 C 121.546875 84.304688 120.761719 83.988281 119.953125 84 C 119.167969 84.011719 118.429688 84.328125 117.878906 84.878906 L 105 97.757812 L 78 70.757812 L 78 46.089844 L 103.101562 36.199219 C 104.226562 35.753906 104.964844 34.6875 105 33.492188 C 105.035156 32.285156 104.34375 31.183594 103.253906 30.679688 L 76.253906 18.28125 C 75.890625 18.105469 75.492188 18.011719 75.09375 18 Z M 75 76.242188 L 102.457031 103.6875 C 102.679688 104.039062 102.972656 104.332031 103.3125 104.566406 L 107.941406 109.171875 L 99.316406 113.484375 L 87 104.25 L 75 113.25 L 63 104.25 L 50.683594 113.484375 L 42.058594 109.171875 L 46.6875 104.542969 C 47.039062 104.320312 47.332031 104.027344 47.566406 103.6875 Z M 75 76.242188 "/>
</g>
</svg>
