<?xml version="1.0" encoding="UTF-8"?>
<svg xmlns="http://www.w3.org/2000/svg" xmlns:xlink="http://www.w3.org/1999/xlink" width="150pt" height="150pt" viewBox="0 0 150 150" version="1.1">
<g id="surface303940">
<path style=" stroke:none;fill-rule:nonzero;fill:rgb(100%,100%,100%);fill-opacity:1;" d="M 75 0.292969 C 69.058594 0.292969 63.6875 3.121094 56.257812 7.023438 C 46.683594 12.0625 33.566406 18.957031 11.355469 23.832031 L 9 24.347656 L 9 26.757812 C 9 118.15625 73.09375 148.800781 73.742188 149.097656 L 75.066406 149.707031 L 76.359375 149.042969 C 77.003906 148.714844 141 115.109375 141 26.757812 L 141 24.347656 L 138.644531 23.832031 C 116.433594 18.957031 103.316406 12.0625 93.746094 7.027344 C 86.3125 3.121094 80.941406 0.292969 75 0.292969 Z M 75.152344 38.757812 L 82.289062 57.492188 L 82.976562 59.308594 L 84.914062 59.425781 L 105 60.609375 C 105.007812 60.703125 104.976562 60.773438 104.929688 60.835938 L 89.5 73.300781 L 87.988281 74.519531 L 88.480469 76.394531 L 93.613281 95.910156 L 76.839844 84.824219 L 75.203125 83.753906 L 73.5625 84.808594 L 56.898438 95.519531 C 56.796875 95.570312 56.679688 95.628906 56.585938 95.671875 C 56.570312 95.664062 56.550781 95.65625 56.539062 95.648438 C 56.519531 95.613281 56.503906 95.585938 56.496094 95.585938 L 56.492188 95.589844 L 61.585938 76.089844 L 62.074219 74.234375 L 60.597656 73.015625 L 45.296875 60.417969 L 45.179688 60.316406 L 65.167969 59.121094 L 67.101562 59.011719 L 67.792969 57.195312 L 74.722656 39.007812 C 74.886719 38.890625 75.042969 38.804688 75.152344 38.761719 Z M 75.152344 38.757812 "/>
</g>
</svg>
