<?xml version="1.0" encoding="UTF-8"?>
<svg xmlns="http://www.w3.org/2000/svg" xmlns:xlink="http://www.w3.org/1999/xlink" width="150pt" height="150pt" viewBox="0 0 150 150" version="1.1">
<g id="surface299255">
<path style=" stroke:none;fill-rule:nonzero;fill:rgb(100%,100%,100%);fill-opacity:1;" d="M 59.625 13.21875 C 48.585938 13.417969 40.523438 16.710938 35.625 23.15625 C 29.824219 30.796875 28.769531 42.433594 32.4375 57.65625 C 31.089844 59.308594 30.070312 61.816406 30.46875 65.15625 C 31.265625 71.765625 33.832031 74.484375 36 75.5625 C 37.03125 80.753906 39.902344 86.589844 42.65625 89.34375 L 42.65625 90.75 C 42.679688 93.796875 42.667969 96.433594 42.375 99.84375 C 40.535156 104.0625 34.417969 106.535156 27.375 109.3125 C 15.65625 113.917969 1.089844 119.613281 0 137.8125 L -0.1875 141 L 120.1875 141 L 120 137.8125 C 119.683594 132.503906 118.171875 128.25 115.96875 124.78125 L 150.1875 124.78125 L 150 121.59375 C 149.613281 115.207031 147.117188 110.238281 143.625 106.6875 C 140.132812 103.136719 135.761719 100.921875 131.53125 99.09375 C 127.300781 97.265625 123.152344 95.894531 120 94.3125 C 116.953125 92.789062 115.230469 91.253906 114.46875 89.4375 C 114.222656 86.285156 114.164062 83.71875 114.1875 80.71875 C 114.480469 80.390625 114.949219 80.15625 115.21875 79.78125 C 115.933594 78.796875 116.648438 77.601562 117.28125 76.3125 C 118.347656 74.121094 119.074219 71.53125 119.53125 68.90625 C 120.316406 68.472656 121.148438 68.402344 121.78125 67.59375 C 123.070312 65.953125 123.925781 63.726562 124.3125 60.5625 L 124.3125 60.46875 C 124.640625 57.726562 123.75 55.886719 122.625 54.375 C 123.867188 50.308594 125.390625 43.898438 124.875 37.21875 C 124.582031 33.539062 123.65625 29.824219 121.40625 26.71875 C 119.273438 23.765625 115.78125 21.597656 111.375 20.8125 C 108.515625 17.636719 104.003906 16.21875 98.71875 16.21875 C 91.5 16.347656 85.875 18.105469 81.75 21.28125 C 79.863281 20.0625 77.648438 19.148438 75.1875 18.65625 C 72.351562 15.082031 66.914062 13.21875 59.625 13.21875 Z M 98.71875 22.21875 C 98.753906 22.21875 98.777344 22.21875 98.8125 22.21875 C 103.804688 22.242188 106.921875 23.71875 107.71875 25.125 L 108.46875 26.34375 L 109.875 26.625 C 113.285156 27.09375 115.183594 28.324219 116.53125 30.1875 C 117.878906 32.050781 118.640625 34.710938 118.875 37.6875 C 119.34375 43.640625 117.609375 50.730469 116.53125 54 L 115.78125 56.25 L 117.84375 57.46875 C 117.574219 57.304688 118.640625 57.878906 118.40625 59.8125 C 118.113281 62.238281 117.480469 63.445312 117.09375 63.9375 C 116.707031 64.429688 116.613281 64.324219 116.71875 64.3125 L 114.1875 64.5 L 114 66.9375 C 113.777344 69.046875 112.839844 71.636719 111.84375 73.6875 C 111.339844 74.707031 110.882812 75.609375 110.4375 76.21875 C 110.167969 76.582031 109.980469 76.851562 109.875 76.96875 L 109.78125 76.96875 C 109.769531 76.980469 109.78125 77.0625 109.78125 77.0625 L 108.1875 77.8125 L 108.1875 79.59375 C 108.1875 83.238281 108.082031 86.296875 108.46875 90.5625 L 108.46875 90.9375 L 108.65625 91.3125 C 110.167969 95.355469 113.660156 97.792969 117.375 99.65625 C 121.089844 101.519531 125.25 102.925781 129.1875 104.625 C 133.125 106.324219 136.699219 108.257812 139.3125 110.90625 C 141.28125 112.910156 142.511719 115.570312 143.25 118.78125 L 110.71875 118.78125 C 105.421875 114.292969 98.707031 111.679688 92.71875 109.3125 C 85.699219 106.535156 79.558594 104.0625 77.71875 99.84375 C 77.425781 96.445312 77.507812 93.785156 77.53125 90.75 L 77.53125 89.34375 C 80.214844 86.601562 82.980469 80.753906 84 75.5625 C 86.167969 74.484375 88.734375 71.765625 89.53125 65.15625 C 89.929688 61.886719 88.96875 59.402344 87.65625 57.75 C 89.402344 51.808594 92.964844 36.339844 86.8125 26.4375 C 86.589844 26.085938 86.308594 25.839844 86.0625 25.5 C 88.898438 23.578125 92.929688 22.335938 98.71875 22.21875 Z M 98.71875 22.21875 "/>
</g>
</svg>
