<?xml version="1.0" encoding="UTF-8"?>
<svg xmlns="http://www.w3.org/2000/svg" xmlns:xlink="http://www.w3.org/1999/xlink" width="150pt" height="150pt" viewBox="0 0 150 150" version="1.1">
<g id="surface304217">
<path style=" stroke:none;fill-rule:nonzero;fill:rgb(100%,100%,100%);fill-opacity:1;" d="M 75 7.03125 C 37.5 7.03125 7.03125 37.5 7.03125 75 C 7.03125 112.5 37.5 142.96875 75 142.96875 C 112.5 142.96875 142.96875 112.5 142.96875 75 C 142.96875 46.40625 124.921875 20.625 97.96875 11.015625 C 90.585938 8.320312 82.851562 7.03125 75 7.03125 Z M 75 14.0625 C 82.03125 14.0625 88.945312 15.234375 95.625 17.578125 C 95.976562 17.695312 96.328125 17.8125 96.5625 17.929688 L 96.796875 26.484375 C 96.796875 29.648438 94.921875 32.578125 91.992188 33.867188 C 85.546875 36.679688 79.101562 35.15625 76.40625 42.539062 C 74.179688 48.164062 80.039062 63.28125 87.1875 63.28125 C 96.210938 63.28125 100.546875 45.117188 103.242188 45.117188 C 105 45.117188 107.695312 50.625 110.859375 54.726562 C 112.96875 57.539062 116.25 59.0625 119.765625 59.0625 L 125.742188 59.0625 L 134.296875 61.054688 C 135.351562 65.625 135.9375 70.3125 135.9375 75 C 135.9375 108.632812 108.632812 135.9375 75 135.9375 C 70.195312 135.9375 65.507812 135.351562 61.054688 134.296875 L 61.054688 126.445312 L 58.125 123.515625 C 55.195312 120.585938 61.171875 115.664062 62.8125 109.453125 C 67.382812 91.875 52.148438 91.171875 51.679688 87.304688 C 51.210938 82.96875 56.835938 79.6875 60.234375 76.289062 C 63.632812 72.890625 64.6875 67.617188 62.929688 64.570312 C 57.421875 54.375 44.0625 59.765625 42.773438 70.429688 C 42.070312 76.875 38.203125 83.4375 34.921875 86.835938 C 31.640625 90.117188 25.195312 88.359375 23.4375 83.554688 C 21.445312 78.164062 28.359375 76.171875 27.304688 69.257812 C 27.070312 67.382812 25.078125 66.445312 22.617188 66.09375 L 14.53125 66.328125 C 18.867188 36.796875 44.296875 14.0625 75 14.0625 Z M 115.410156 81.960938 C 112.328125 82.128906 108.03125 83.65625 102.1875 87.65625 C 97.734375 90.703125 89.882812 84.375 86.484375 89.0625 C 83.203125 93.632812 100.429688 107.578125 106.171875 104.882812 C 115.898438 100.3125 122.226562 90.820312 122.226562 87.304688 C 122.300781 85.179688 120.542969 81.683594 115.410156 81.960938 Z M 115.410156 81.960938 "/>
</g>
</svg>
