<?xml version="1.0" encoding="UTF-8"?>
<svg xmlns="http://www.w3.org/2000/svg" xmlns:xlink="http://www.w3.org/1999/xlink" width="150pt" height="150pt" viewBox="0 0 150 150" version="1.1">
<g id="surface13452071">
<path style=" stroke:none;fill-rule:nonzero;fill:rgb(100%,100%,100%);fill-opacity:1;" d="M 75 6 C 40.261719 6 12 34.261719 12 69 C 12 103.738281 40.261719 132 75 132 C 109.738281 132 138 103.738281 138 69 C 138 34.261719 109.738281 6 75 6 Z M 76.5 24 C 77.019531 24 77.488281 23.976562 78 24 C 70.230469 28.675781 62.605469 36.195312 60 45 C 66.007812 39.914062 77.007812 35.992188 85.492188 35.992188 C 104.546875 35.992188 119.992188 51.441406 119.992188 70.492188 C 119.992188 71.011719 120.019531 71.480469 119.992188 71.992188 C 115.320312 64.222656 107.804688 59.605469 99 57 C 104.085938 63.007812 108 71.007812 108 79.492188 C 108 98.546875 92.554688 113.992188 73.5 113.992188 C 72.980469 113.992188 72.511719 114.019531 72 113.992188 C 79.769531 109.320312 84.394531 101.804688 87 93 C 80.992188 98.085938 72.992188 101.992188 64.507812 101.992188 C 45.453125 101.992188 30.007812 86.546875 30.007812 67.492188 C 30.007812 66.976562 29.980469 66.507812 30.007812 65.992188 C 34.679688 73.765625 42.195312 78.394531 51 81 C 45.914062 74.992188 42 66.988281 42 58.5 C 42 39.445312 57.445312 24 76.5 24 Z M 28.667969 120.085938 L 15.878906 132.878906 C 15.316406 133.441406 15 134.203125 15 135 L 15 141 C 15 142.660156 16.339844 144 18 144 L 132 144 C 133.660156 144 135 142.660156 135 141 L 135 135 C 135 134.203125 134.683594 133.441406 134.121094 132.878906 L 121.332031 120.085938 C 109.074219 131.210938 92.816406 138 75 138 C 57.183594 138 40.925781 131.210938 28.671875 120.085938 Z M 28.667969 120.085938 "/>
</g>
</svg>
