<?xml version="1.0" encoding="UTF-8"?>
<svg xmlns="http://www.w3.org/2000/svg" xmlns:xlink="http://www.w3.org/1999/xlink" width="150pt" height="150pt" viewBox="0 0 150 150" version="1.1">
<g id="surface13529889">
<path style=" stroke:none;fill-rule:nonzero;fill:rgb(100%,100%,100%);fill-opacity:1;" d="M 131.964844 70.628906 C 131.25 53.0625 116.730469 39 99 39 C 95.941406 39 93.011719 39.398438 90.105469 40.21875 C 83.390625 30.164062 72.058594 24 60 24 C 40.746094 24 24.972656 39.1875 24.046875 58.21875 C 9.972656 62.085938 0 75.082031 0 90 C 0 108.199219 14.800781 123 33 123 L 123 123 C 137.894531 123 150 110.894531 150 96 C 150 84.503906 142.546875 74.203125 131.964844 70.628906 Z M 75 106.242188 L 54.878906 86.121094 L 59.121094 81.878906 L 72 94.757812 L 72 60 L 78 60 L 78 94.757812 L 90.878906 81.878906 L 95.121094 86.121094 Z M 75 106.242188 "/>
</g>
</svg>
