<?xml version="1.0" encoding="UTF-8"?>
<svg xmlns="http://www.w3.org/2000/svg" xmlns:xlink="http://www.w3.org/1999/xlink" width="150pt" height="150pt" viewBox="0 0 150 150" version="1.1">
<g id="surface1011439">
<path style=" stroke:none;fill-rule:nonzero;fill:rgb(100%,100%,100%);fill-opacity:1;" d="M 138.644531 23.542969 C 116.4375 18.667969 103.324219 11.765625 93.75 6.726562 C 86.308594 2.824219 80.941406 0 75 0 C 69.058594 0 63.691406 2.824219 56.25 6.726562 C 46.675781 11.765625 33.5625 18.667969 11.355469 23.542969 L 9 24.058594 L 9 26.472656 C 9 117.855469 73.089844 148.511719 73.746094 148.804688 L 75.058594 149.414062 L 76.359375 148.757812 C 77.003906 148.429688 141 114.820312 141 26.472656 L 141 24.058594 Z M 80.390625 110.8125 C 80.390625 111.457031 79.957031 111.878906 79.324219 111.878906 L 71.144531 111.878906 C 70.488281 111.878906 70.066406 111.445312 70.066406 110.8125 L 70.066406 101.554688 C 70.066406 100.910156 70.488281 100.476562 71.144531 100.476562 L 79.324219 100.476562 C 79.96875 100.476562 80.390625 100.910156 80.390625 101.554688 Z M 80.390625 88.921875 C 80.390625 89.566406 79.957031 90 79.324219 90 L 71.144531 90 C 70.488281 90 70.066406 89.566406 70.066406 88.921875 L 70.066406 37.675781 C 70.066406 37.03125 70.488281 36.597656 71.144531 36.597656 L 79.324219 36.597656 C 79.96875 36.597656 80.390625 37.03125 80.390625 37.675781 Z M 80.390625 88.921875 "/>
</g>
</svg>
