<?xml version="1.0" encoding="UTF-8"?>
<svg xmlns="http://www.w3.org/2000/svg" xmlns:xlink="http://www.w3.org/1999/xlink" width="150pt" height="150pt" viewBox="0 0 150 150" version="1.1">
<g id="surface10842504">
<path style=" stroke:none;fill-rule:nonzero;fill:rgb(100%,100%,100%);fill-opacity:1;" d="M 105.46875 3.28125 C 87.65625 3.28125 73.242188 17.578125 72.65625 35.976562 C 72.1875 52.96875 88.476562 75.351562 98.203125 87.070312 C 99.960938 89.179688 102.65625 90.46875 105.46875 90.46875 C 108.28125 90.46875 110.859375 89.179688 112.734375 87.070312 C 122.460938 75.234375 138.867188 52.96875 138.28125 35.976562 C 137.695312 17.578125 123.28125 3.28125 105.46875 3.28125 Z M 105.46875 24.375 C 111.914062 24.375 117.1875 29.648438 117.1875 36.09375 C 117.1875 42.539062 111.914062 47.8125 105.46875 47.8125 C 99.023438 47.8125 93.75 42.539062 93.75 36.09375 C 93.75 29.648438 99.023438 24.375 105.46875 24.375 Z M 51.847656 59.300781 C 51.402344 59.28125 50.945312 59.355469 50.507812 59.53125 C 48.632812 60.234375 47.695312 62.226562 48.398438 63.984375 L 52.734375 76.171875 C 53.203125 77.578125 54.609375 78.515625 56.015625 78.515625 C 56.367188 78.515625 56.835938 78.398438 57.1875 78.28125 L 68.203125 74.296875 C 70.078125 73.59375 71.015625 71.601562 70.3125 69.84375 C 69.609375 68.085938 67.617188 67.03125 65.859375 67.617188 L 58.125 70.429688 L 54.960938 61.640625 C 54.433594 60.234375 53.179688 59.355469 51.847656 59.300781 Z M 38.601562 64.105469 C 38.160156 64.085938 37.707031 64.160156 37.265625 64.335938 C 35.390625 65.039062 34.453125 67.03125 35.15625 68.789062 L 46.40625 99.609375 L 16.640625 110.390625 C 14.765625 111.210938 13.828125 113.203125 14.53125 115.078125 C 15 116.484375 16.40625 117.421875 17.8125 117.421875 C 18.164062 117.421875 18.632812 117.304688 18.984375 117.1875 L 48.75 106.40625 L 63.164062 146.015625 C 63.632812 147.421875 65.039062 148.359375 66.445312 148.359375 C 66.796875 148.359375 67.265625 148.242188 67.617188 148.125 C 69.492188 147.421875 70.429688 145.429688 69.726562 143.671875 L 54.140625 100.546875 L 41.71875 66.445312 C 41.191406 65.039062 39.9375 64.160156 38.601562 64.105469 Z M 77.460938 78.453125 C 77 78.429688 76.523438 78.484375 76.054688 78.632812 L 59.53125 84.726562 C 59.414062 84.726562 59.296875 84.84375 59.179688 84.84375 C 59.0625 84.84375 58.945312 84.960938 58.828125 84.960938 C 58.710938 85.078125 58.59375 85.078125 58.59375 85.195312 C 58.476562 85.3125 58.359375 85.3125 58.359375 85.429688 C 58.242188 85.546875 58.242188 85.664062 58.125 85.664062 L 57.890625 85.898438 C 57.773438 86.015625 57.773438 86.132812 57.65625 86.25 C 57.65625 86.367188 57.539062 86.484375 57.539062 86.484375 C 57.539062 86.601562 57.421875 86.71875 57.421875 86.835938 C 57.421875 86.953125 57.304688 87.070312 57.304688 87.1875 L 57.304688 88.59375 C 57.304688 88.710938 57.421875 88.828125 57.421875 88.945312 C 57.421875 89.0625 57.421875 89.179688 57.539062 89.296875 L 76.40625 140.976562 C 76.875 142.382812 78.28125 143.320312 79.6875 143.320312 C 80.039062 143.320312 80.507812 143.203125 80.859375 143.085938 C 82.734375 142.382812 83.671875 140.390625 82.96875 138.632812 L 75.351562 117.65625 L 112.734375 104.0625 L 115.546875 111.796875 C 116.015625 113.203125 117.421875 114.140625 118.828125 114.140625 C 119.179688 114.140625 119.648438 114.023438 120 113.90625 C 121.875 113.203125 122.8125 111.210938 122.109375 109.453125 L 119.296875 101.71875 L 127.03125 98.90625 C 128.90625 98.203125 129.84375 96.210938 129.140625 94.453125 C 128.4375 92.578125 126.445312 91.640625 124.6875 92.34375 L 113.671875 96.328125 L 73.007812 111.210938 L 65.390625 90.234375 L 78.515625 85.3125 C 80.390625 84.609375 81.210938 82.617188 80.625 80.742188 C 80.097656 79.335938 78.84375 78.523438 77.460938 78.453125 Z M 77.460938 78.453125 "/>
</g>
</svg>
