<?xml version="1.0" encoding="UTF-8"?>
<svg xmlns="http://www.w3.org/2000/svg" xmlns:xlink="http://www.w3.org/1999/xlink" width="150pt" height="150pt" viewBox="0 0 150 150" version="1.1">
<g id="surface1014584">
<path style=" stroke:none;fill-rule:nonzero;fill:rgb(100%,100%,100%);fill-opacity:1;" d="M 99 9 C 92.371094 9 87 14.371094 87 21 C 87 27.628906 92.371094 33 99 33 C 105.628906 33 111 27.628906 111 21 C 111 14.371094 105.628906 9 99 9 Z M 73.5 33 C 57 33 42 50.761719 42 69 C 42 87.238281 48.601562 102 66 102 L 93 102 L 99.359375 137.703125 C 99.988281 141 102.988281 143.703125 106.589844 143.703125 C 111.359375 143.703125 114.660156 139.5 113.761719 135 L 106.5 94.203125 C 105.601562 90 102 87 97.5 87 L 75.152344 87 C 72.480469 87 69.960938 85.863281 68.25 83.882812 C 66.539062 81.960938 65.757812 79.40625 66.058594 76.859375 L 68.28125 56.671875 C 68.460938 55.023438 69.898438 53.820312 71.578125 54.03125 C 73.226562 54.210938 74.398438 55.679688 74.25 57.328125 L 72.03125 77.578125 C 71.910156 78.476562 72.179688 79.292969 72.75 79.921875 C 73.351562 80.613281 74.222656 81 75.152344 81 L 99 81 C 102.316406 81 105 78.316406 105 75 C 105 71.683594 102.316406 69 99 69 L 84.820312 69 C 84.820312 69 87 55.53125 87 51 C 87 42 87 33 73.5 33 Z M 27.597656 111 C 26.515625 110.984375 25.507812 111.554688 24.964844 112.488281 C 24.417969 113.421875 24.417969 114.578125 24.964844 115.511719 C 25.507812 116.445312 26.515625 117.015625 27.597656 117 L 81 117 C 82.082031 117.015625 83.089844 116.445312 83.632812 115.511719 C 84.179688 114.578125 84.179688 113.421875 83.632812 112.488281 C 83.089844 111.554688 82.082031 110.984375 81 111 Z M 27.597656 111 "/>
</g>
</svg>
