<?xml version="1.0" encoding="UTF-8"?>
<svg xmlns="http://www.w3.org/2000/svg" xmlns:xlink="http://www.w3.org/1999/xlink" width="150pt" height="150pt" viewBox="0 0 150 150" version="1.1">
<g id="surface8556358">
<path style=" stroke:none;fill-rule:nonzero;fill:rgb(100%,100%,100%);fill-opacity:1;" d="M 76.6875 141 C 39.363281 141 9 110.636719 9 73.3125 C 9 44.34375 27.914062 18.5625 56.050781 9.152344 C 57.292969 8.742188 58.652344 9.175781 59.414062 10.21875 C 60.1875 11.273438 60.199219 12.703125 59.4375 13.757812 C 54.257812 20.929688 48.09375 32.390625 48.09375 46.242188 C 48.09375 76.933594 73.066406 101.90625 103.769531 101.90625 C 117.621094 101.90625 129.082031 95.742188 136.242188 90.574219 C 137.308594 89.8125 138.726562 89.8125 139.78125 90.585938 C 140.835938 91.359375 141.257812 92.71875 140.847656 93.949219 C 131.4375 122.085938 105.65625 141 76.6875 141 Z M 76.6875 141 "/>
</g>
</svg>
