<?xml version="1.0" encoding="UTF-8"?>
<svg xmlns="http://www.w3.org/2000/svg" xmlns:xlink="http://www.w3.org/1999/xlink" width="150pt" height="150pt" viewBox="0 0 150 150" version="1.1">
<g id="surface997290">
<path style=" stroke:none;fill-rule:nonzero;fill:rgb(100%,100%,100%);fill-opacity:1;" d="M 75 15 C 66.714844 15 60 21.714844 60 30 C 60 38.285156 66.714844 45 75 45 C 83.285156 45 90 38.285156 90 30 C 90 21.714844 83.285156 15 75 15 Z M 30 55 C 28.195312 54.972656 26.519531 55.921875 25.609375 57.480469 C 24.703125 59.035156 24.703125 60.964844 25.609375 62.519531 C 26.519531 64.078125 28.195312 65.027344 30 65 L 60 66.875 L 60 134.832031 C 60 137.683594 62.316406 140 65.167969 140 C 67.886719 140 70.140625 137.890625 70.324219 135.175781 L 72.507812 102.324219 C 72.601562 101.019531 73.683594 100 75 100 C 75.46875 100 80 99.949219 80 99.949219 L 89.433594 107.753906 L 77.800781 115.507812 L 77.761719 115.527344 C 75.292969 116.761719 74.292969 119.765625 75.527344 122.234375 C 76.761719 124.707031 79.765625 125.707031 82.238281 124.472656 L 102.238281 114.472656 C 103.582031 113.800781 104.550781 112.558594 104.878906 111.089844 C 105.207031 109.621094 104.855469 108.085938 103.925781 106.902344 L 90 86.179688 L 90 66.875 L 120 65 C 121.804688 65.027344 123.480469 64.078125 124.390625 62.519531 C 125.296875 60.964844 125.296875 59.035156 124.390625 57.480469 C 123.480469 55.921875 121.804688 54.972656 120 55 Z M 30 55 "/>
</g>
</svg>
