<?xml version="1.0" encoding="UTF-8"?>
<svg xmlns="http://www.w3.org/2000/svg" xmlns:xlink="http://www.w3.org/1999/xlink" width="150pt" height="150pt" viewBox="0 0 150 150" version="1.1">
<g id="surface729740">
<path style=" stroke:none;fill-rule:nonzero;fill:rgb(100%,100%,100%);fill-opacity:1;" d="M 138.644531 23.542969 C 116.4375 18.667969 103.324219 11.765625 93.75 6.726562 C 86.308594 2.824219 80.941406 0 75 0 C 69.058594 0 63.691406 2.824219 56.25 6.726562 C 46.675781 11.765625 33.5625 18.667969 11.355469 23.542969 L 9 24.058594 L 9 26.472656 C 9 117.855469 73.089844 148.511719 73.746094 148.804688 L 75.058594 149.414062 L 76.359375 148.757812 C 77.003906 148.429688 141 114.820312 141 26.472656 L 141 24.058594 Z M 73.253906 93.46875 L 49.757812 72.210938 L 53.789062 67.769531 L 72.046875 84.28125 L 98.097656 43.851562 L 103.148438 47.097656 Z M 73.253906 93.46875 "/>
</g>
</svg>
