<?xml version="1.0" encoding="UTF-8"?>
<svg xmlns="http://www.w3.org/2000/svg" xmlns:xlink="http://www.w3.org/1999/xlink" width="150pt" height="150pt" viewBox="0 0 150 150" version="1.1">
<g id="surface6991350">
<path style=" stroke:none;fill-rule:nonzero;fill:rgb(100%,100%,100%);fill-opacity:1;" d="M 60.75 6 C 50.429688 6 42.734375 8.972656 38.132812 15.117188 C 32.515625 22.621094 31.5625 34.339844 35.015625 49.90625 C 33.695312 51.523438 32.738281 54.039062 33.128906 57.3125 C 33.910156 63.820312 36.394531 66.492188 38.523438 67.570312 C 39.515625 72.609375 42.269531 78.210938 44.96875 80.941406 C 44.96875 80.941406 45 88.5 44.625 91.875 C 42.824219 96.015625 36.960938 97.769531 30.03125 100.53125 C 18.449219 105.148438 4.078125 110.878906 3 128.820312 L 2.820312 132 L 92.519531 132 C 97.167969 142.558594 107.761719 150 120 150 C 136.5 150 150 136.5 150 120 C 150 104.96875 138.808594 92.429688 124.347656 90.328125 C 124.347656 90.328125 124.261719 90.300781 124.230469 90.269531 C 119.429688 88.140625 112.636719 82.964844 111.375 80.625 C 111 78 111.027344 71.609375 111.027344 71.609375 C 113.519531 69.328125 116.878906 64.652344 118.046875 59.882812 C 120 58.832031 122.222656 56.339844 122.910156 50.460938 C 123.273438 47.492188 122.429688 45.183594 121.230469 43.652344 C 122.730469 36.992188 124.8125 24.25 119.699219 16.742188 C 117.605469 13.660156 114.542969 11.730469 110.640625 10.921875 C 108.0625 7.742188 103.226562 6 96.835938 6 C 92.097656 6 88.113281 6.8125 84.691406 8.460938 C 87.269531 10.019531 89.492188 12.121094 91.230469 14.671875 C 96.449219 22.261719 97.503906 33.421875 94.410156 48.691406 C 95.792969 51.453125 96.332031 54.628906 95.941406 57.992188 C 95.101562 64.949219 92.523438 68.914062 89.882812 71.164062 C 88.621094 75.664062 86.429688 80.25 84 83.492188 C 84 85.679688 83.996094 87.601562 84.117188 89.757812 C 85.738281 91.5 91.113281 93.601562 95.132812 95.191406 C 96.78125 95.820312 100.441406 97.316406 100.441406 97.316406 C 98.820312 98.699219 97.347656 100.289062 96.058594 102 C 95.007812 101.578125 93.992188 101.160156 92.96875 100.769531 C 86.039062 98.070312 80.175781 95.984375 78.375 91.875 C 78 88.5 78.027344 81.269531 78.027344 81.269531 C 80.730469 78.507812 83.546875 72.628906 84.566406 67.527344 C 86.699219 66.449219 89.191406 63.78125 89.96875 57.269531 C 90.359375 53.96875 89.367188 51.449219 88.046875 49.828125 C 89.609375 42.808594 92.550781 27.207031 86.277344 18.058594 C 84.480469 15.449219 82.109375 13.5625 79.199219 12.390625 C 78.722656 12.183594 76.589844 11.550781 76.019531 11.429688 C 73.230469 7.921875 67.890625 6 60.75 6 Z M 120 96 C 133.199219 96 144 106.800781 144 120 C 144 133.199219 133.199219 144 120 144 C 106.800781 144 96 133.199219 96 120 C 96 106.800781 106.800781 96 120 96 Z M 105 117 C 104.101562 117 103.351562 117.300781 102.828125 117.828125 C 102.5625 118.089844 102.359375 118.402344 102.21875 118.769531 C 102.078125 119.136719 102 119.550781 102 120 C 102 120.898438 102.300781 121.648438 102.828125 122.175781 C 103.089844 122.4375 103.402344 122.644531 103.769531 122.785156 C 104.136719 122.925781 104.550781 123 105 123 L 135 123 C 136.800781 123 138 121.800781 138 120 C 138 118.199219 136.800781 117 135.300781 117 Z M 105 117 "/>
</g>
</svg>
