<?xml version="1.0" encoding="UTF-8"?>
<svg xmlns="http://www.w3.org/2000/svg" xmlns:xlink="http://www.w3.org/1999/xlink" width="150pt" height="150pt" viewBox="0 0 150 150" version="1.1">
<g id="surface696246">
<path style=" stroke:none;fill-rule:nonzero;fill:rgb(100%,100%,100%);fill-opacity:1;" d="M 72.5625 9 C 69.832031 9 66.996094 10.3125 64.6875 12.65625 L 29.8125 47.4375 C 27.890625 49.136719 27 52.429688 27 54.75 L 27 95.25 C 27 97.546875 27.949219 100.816406 29.71875 102.375 L 64.5 137.0625 C 67.664062 140.273438 70.582031 141 72.46875 141 C 77.472656 141 81 136.429688 81 129.9375 L 81 18.9375 C 81 12.105469 76.617188 9 72.5625 9 Z M 114.84375 20.4375 C 113.53125 20.660156 112.523438 21.726562 112.371094 23.050781 C 112.230469 24.375 112.957031 25.640625 114.1875 26.15625 C 132.035156 35.15625 144.1875 53.613281 144.1875 75 C 144.1875 96.386719 132.035156 114.84375 114.1875 123.84375 C 113.085938 124.21875 112.3125 125.203125 112.183594 126.351562 C 112.054688 127.511719 112.605469 128.636719 113.601562 129.246094 C 114.585938 129.84375 115.839844 129.820312 116.8125 129.1875 C 136.617188 119.191406 150.1875 98.683594 150.1875 75 C 150.1875 51.316406 136.617188 30.808594 116.8125 20.8125 C 116.296875 20.519531 115.710938 20.390625 115.125 20.4375 C 115.03125 20.4375 114.9375 20.4375 114.84375 20.4375 Z M 104.15625 36.375 C 102.820312 36.539062 101.753906 37.582031 101.566406 38.917969 C 101.367188 40.242188 102.082031 41.542969 103.3125 42.09375 C 115.019531 48.410156 123 60.738281 123 75 C 123 89.214844 115.054688 101.578125 103.40625 107.90625 C 101.953125 108.703125 101.425781 110.53125 102.234375 111.984375 C 103.03125 113.4375 104.859375 113.964844 106.3125 113.15625 C 119.835938 105.808594 129 91.453125 129 75 C 129 58.5 119.8125 44.085938 106.21875 36.75 C 105.679688 36.445312 105.058594 36.316406 104.4375 36.375 C 104.34375 36.375 104.25 36.375 104.15625 36.375 Z M 9 47.90625 C 3.972656 47.90625 -0.09375 51.972656 -0.09375 57 L -0.09375 93 C -0.09375 98.027344 3.972656 102.09375 9 102.09375 L 22.40625 102.09375 C 21.421875 99.738281 21 97.230469 21 95.25 L 21 54.75 C 21 52.78125 21.492188 50.285156 22.5 47.90625 Z M 91.59375 55.21875 C 90.140625 55.394531 89.039062 56.589844 88.96875 58.054688 C 88.898438 59.507812 89.882812 60.808594 91.3125 61.125 C 97.453125 62.730469 102 68.332031 102 75 C 102 81.667969 97.453125 87.269531 91.3125 88.875 C 89.707031 89.285156 88.746094 90.925781 89.15625 92.53125 C 89.566406 94.136719 91.207031 95.097656 92.8125 94.6875 C 101.554688 92.402344 108 84.410156 108 75 C 108 65.589844 101.542969 57.597656 92.8125 55.3125 C 92.414062 55.195312 92.003906 55.171875 91.59375 55.21875 Z M 91.59375 55.21875 "/>
</g>
</svg>
