<?xml version="1.0" encoding="UTF-8"?>
<svg xmlns="http://www.w3.org/2000/svg" xmlns:xlink="http://www.w3.org/1999/xlink" width="150pt" height="150pt" viewBox="0 0 150 150" version="1.1">
<g id="surface6801006">
<path style=" stroke:none;fill-rule:nonzero;fill:rgb(100%,100%,100%);fill-opacity:1;" d="M 79.5 9 C 55.546875 9 40.722656 28.324219 39.1875 45.9375 C 38.789062 48.164062 39.679688 50.425781 41.484375 51.796875 C 43.289062 53.15625 45.714844 53.378906 47.742188 52.382812 C 49.769531 51.386719 51.070312 49.324219 51.09375 47.0625 C 52.113281 35.34375 62.050781 21 79.5 21 C 96.9375 21 108 35.003906 108 49.5 C 108 66.398438 104.8125 72.09375 98.625 80.0625 C 92.4375 88.03125 82.722656 97.792969 72.46875 118.125 C 70.171875 122.648438 67.898438 125.332031 65.8125 126.84375 C 63.726562 128.355469 61.734375 129 58.5 129 C 49.617188 129 45 121.277344 45 115.5 C 45.035156 113.332031 43.898438 111.328125 42.023438 110.238281 C 40.160156 109.136719 37.839844 109.136719 35.976562 110.238281 C 34.101562 111.328125 32.964844 113.332031 33 115.5 C 33 127.6875 42.785156 141 58.5 141 C 63.667969 141 68.753906 139.640625 72.9375 136.59375 C 77.121094 133.546875 80.332031 129.128906 83.15625 123.5625 C 92.753906 104.542969 101.144531 96.421875 108.09375 87.46875 C 115.042969 78.515625 120 68.226562 120 49.5 C 120 28.746094 103.464844 9 79.5 9 Z M 79.5 24 C 67.21875 24 54 33.832031 54 49.5 C 54 51.878906 52.945312 53.34375 51 55.5 C 50.027344 56.578125 48.914062 57.667969 47.71875 59.15625 C 46.523438 60.644531 45 62.800781 45 66 C 45 67.839844 45.714844 70.03125 46.875 71.4375 C 48.035156 72.84375 49.3125 73.511719 50.25 73.96875 C 52.125 74.894531 53.226562 75.164062 53.71875 75.46875 L 53.90625 75.65625 C 55.863281 76.769531 57 78.152344 57 79.5 C 57 80.765625 57.222656 80.015625 56.625 80.53125 C 56.027344 81.046875 54.058594 82.125 51.375 83.8125 C 44.507812 88.125 45 96 45 96 C 45 106.289062 55.21875 110.25 55.21875 110.25 C 57.304688 111.164062 59.730469 110.824219 61.476562 109.359375 C 63.234375 107.894531 63.996094 105.574219 63.46875 103.359375 C 62.929688 101.132812 61.195312 99.410156 58.96875 98.90625 C 58.96875 98.90625 57 98.90625 57 96 C 57 96 57.539062 94.160156 57.75 94.03125 C 59.847656 92.71875 62.074219 91.746094 64.5 89.625 C 66.925781 87.503906 69 83.53125 69 79.5 C 69 72.550781 64.265625 67.828125 60 65.34375 C 59.953125 65.308594 59.859375 65.296875 59.8125 65.25 C 59.308594 64.945312 59.226562 65.003906 58.78125 64.78125 C 59.214844 64.3125 59.472656 64.054688 60 63.46875 C 62.554688 60.632812 66 55.957031 66 49.5 C 66 40.570312 73.523438 36 79.5 36 C 83.53125 36 86.800781 37.839844 89.25 40.40625 C 91.699219 42.972656 92.8125 46.6875 92.8125 46.6875 C 92.777344 48.855469 93.914062 50.859375 95.789062 51.949219 C 97.652344 53.050781 99.972656 53.050781 101.835938 51.949219 C 103.710938 50.859375 104.847656 48.855469 104.8125 46.6875 C 104.8125 41.25 102.09375 36.574219 97.875 32.15625 C 93.65625 27.738281 87.328125 24 79.5 24 Z M 79.5 24 "/>
</g>
</svg>
