<?xml version="1.0" encoding="UTF-8"?>
<svg xmlns="http://www.w3.org/2000/svg" xmlns:xlink="http://www.w3.org/1999/xlink" width="150pt" height="150pt" viewBox="0 0 150 150" version="1.1">
<g id="surface6801054">
<path style=" stroke:none;fill-rule:nonzero;fill:rgb(100%,100%,100%);fill-opacity:1;" d="M 79.5 9 C 60.175781 9 46.21875 22.007812 41.15625 36.84375 L 17.15625 12.84375 C 15.984375 11.671875 14.015625 11.671875 12.84375 12.84375 C 11.671875 14.015625 11.671875 15.984375 12.84375 17.15625 L 39.46875 43.6875 L 59.625 63.84375 L 88.40625 92.71875 L 97.03125 101.25 L 132.84375 137.15625 C 133.429688 137.742188 134.226562 138 135 138 C 135.773438 138 136.570312 137.742188 137.15625 137.15625 C 138.328125 135.984375 138.328125 134.015625 137.15625 132.84375 L 100.78125 96.46875 C 101.753906 95.261719 102.691406 94.101562 103.59375 93 C 113.121094 81.480469 120 73.160156 120 49.5 C 120 30.023438 104.519531 9 79.5 9 Z M 79.5 21 C 97.335938 21 108 35.484375 108 49.5 C 108 68.847656 103.125 74.660156 94.3125 85.3125 C 93.667969 86.097656 92.929688 87.105469 92.25 87.9375 L 63.28125 58.96875 C 64.792969 56.425781 66 53.378906 66 49.5 C 66 40.289062 74.050781 36 79.5 36 C 87.9375 36 92.8125 44.402344 92.8125 46.6875 C 92.8125 50.003906 95.496094 52.6875 98.8125 52.6875 C 102.128906 52.6875 104.8125 50.003906 104.8125 46.6875 C 104.8125 37.546875 94.160156 24 79.5 24 C 67.230469 24 54 33.75 54 49.5 C 54 49.558594 54 49.628906 54 49.6875 L 51.09375 46.78125 C 52.160156 35.988281 61.628906 21 79.5 21 Z M 47.15625 59.90625 C 45.925781 61.617188 45 63.5625 45 66 C 45 71.882812 49.933594 73.875 52.03125 74.71875 C 52.6875 74.988281 53.273438 75.269531 53.90625 75.65625 C 54.632812 76.066406 57 77.542969 57 79.5 C 57 80.414062 56.976562 80.496094 53.71875 82.40625 C 52.96875 82.839844 52.195312 83.296875 51.375 83.8125 C 45.210938 87.667969 45 95.144531 45 96 C 45 104.660156 51.410156 109.019531 55.21875 110.25 C 55.828125 110.449219 56.484375 110.625 57.09375 110.625 C 59.625 110.625 61.992188 108.949219 62.8125 106.40625 C 63.832031 103.253906 62.121094 99.925781 58.96875 98.90625 C 58.945312 98.894531 57 98.191406 57 96 C 57 95.625 57.316406 94.300781 57.75 94.03125 C 58.464844 93.585938 59.15625 93.199219 59.8125 92.8125 C 63.328125 90.75 67.96875 87.9375 68.8125 81.5625 Z M 84.84375 97.5 C 80.976562 102.925781 76.792969 109.546875 72.46875 118.125 C 67.863281 127.183594 63.703125 129 58.5 129 C 49.289062 129 45 120.9375 45 115.5 C 45 112.183594 42.316406 109.5 39 109.5 C 35.683594 109.5 33 112.183594 33 115.5 C 33 127.769531 42.75 141 58.5 141 C 69.28125 141 77.097656 135.46875 83.15625 123.5625 C 86.71875 116.507812 90.199219 110.847656 93.46875 106.125 Z M 84.84375 97.5 "/>
</g>
</svg>
