<?xml version="1.0" encoding="UTF-8"?>
<svg xmlns="http://www.w3.org/2000/svg" xmlns:xlink="http://www.w3.org/1999/xlink" width="150pt" height="150pt" viewBox="0 0 150 150" version="1.1">
<g id="surface694721">
<path style=" stroke:none;fill-rule:nonzero;fill:rgb(100%,100%,100%);fill-opacity:1;" d="M 149.332031 136.042969 L 77.601562 11.789062 C 76.523438 9.9375 73.476562 9.9375 72.398438 11.789062 L 0.398438 136.5 C -0.128906 137.425781 -0.128906 138.574219 0.398438 139.5 C 0.9375 140.425781 1.933594 141 3 141 L 147 141 C 147.023438 141 147.046875 141 147.058594 141 C 148.722656 141 150.058594 139.664062 150.058594 138 C 150.058594 137.25 149.789062 136.570312 149.332031 136.042969 Z M 70.476562 57.796875 C 70.476562 57.152344 70.910156 56.71875 71.554688 56.71875 L 78.445312 56.71875 C 79.089844 56.71875 79.511719 57.152344 79.511719 57.796875 L 79.511719 101.179688 C 79.511719 101.824219 79.089844 102.257812 78.445312 102.257812 L 71.554688 102.257812 C 70.910156 102.257812 70.476562 101.824219 70.476562 101.179688 Z M 79.734375 119.8125 C 79.734375 120.457031 79.300781 120.878906 78.667969 120.878906 L 71.34375 120.878906 C 70.699219 120.878906 70.277344 120.445312 70.277344 119.8125 L 70.277344 111.949219 C 70.277344 111.304688 70.710938 110.882812 71.34375 110.882812 L 78.667969 110.882812 C 79.3125 110.882812 79.734375 111.304688 79.734375 111.949219 Z M 79.734375 119.8125 "/>
</g>
</svg>
